{
  "asset": {
    "generator": "Khronos glTF Blender I/O v4.5.51",
    "version": "2.0"
  },
  "scene": 0,
  "scenes": [
    {
      "name": "Scene",
      "nodes": [
        0,
        1,
        2,
        3,
        4,
        5,
        6,
        7,
        8,
        9,
        10,
        11,
        12,
        13,
        14,
        15,
        16,
        17,
        18,
        19,
        20,
        21,
        22,
        23,
        24,
        25,
        26,
        27,
        28,
        29,
        30,
        31,
        32,
        33,
        34,
        35,
        36,
        37,
        38,
        39,
        40,
        41,
        42,
        43,
        44,
        45,
        46,
        47,
        48,
        49,
        50,
        51,
        52
      ]
    }
  ],
  "nodes": [
    {
      "mesh": 0,
      "name": "Sign",
      "translation": [
        10.04598331451416,
        1.483065128326416,
        1.7602546215057373
      ]
    },
    {
      "mesh": 1,
      "name": "BackBalconyLogEdges",
      "rotation": [
        0,
        1,
        0,
        7.589671326968528e-07
      ],
      "translation": [
        5.573083877563477,
        1.6846988201141357,
        -6.944311141967773
      ]
    },
    {
      "mesh": 2,
      "name": "RoofFrameLogEdges",
      "translation": [
        -2.688809633255005,
        2.8055951595306396,
        -4.5
      ]
    },
    {
      "mesh": 3,
      "name": "BalconyLogEdges",
      "translation": [
        0.6311628818511963,
        3.622124195098877,
        0.6751337647438049
      ]
    },
    {
      "mesh": 4,
      "name": "Level3",
      "translation": [
        -2.700000047683716,
        2.799999952316284,
        -4.5
      ]
    },
    {
      "mesh": 5,
      "name": "Roof",
      "translation": [
        -2.700000047683716,
        2.799999952316284,
        -4.5
      ]
    },
    {
      "mesh": 6,
      "name": "ChimneyPipes",
      "rotation": [
        0,
        1,
        0,
        9.973857686418341e-07
      ],
      "scale": [
        0.5854621529579163,
        0.5854621529579163,
        0.5854621529579163
      ],
      "translation": [
        2.6589999198913574,
        5.352738380432129,
        -5.499031066894531
      ]
    },
    {
      "mesh": 7,
      "name": "Chimney",
      "rotation": [
        0,
        1,
        0,
        9.973857686418341e-07
      ],
      "scale": [
        0.5854621529579163,
        0.5854621529579163,
        0.5854621529579163
      ],
      "translation": [
        2.666398525238037,
        4.284175872802734,
        -5.495096683502197
      ]
    },
    {
      "mesh": 8,
      "name": "WindowsLevel3Left3",
      "rotation": [
        0,
        -0.7071070671081543,
        0,
        0.7071064710617065
      ],
      "translation": [
        -5.335633277893066,
        5.089469909667969,
        -0.21829968690872192
      ]
    },
    {
      "mesh": 9,
      "name": "WindowsLevel2Left3",
      "rotation": [
        0,
        -0.7071070671081543,
        0,
        0.7071064710617065
      ],
      "scale": [
        1.1289159059524536,
        1.1289159059524536,
        1.1289159059524536
      ],
      "translation": [
        -5.439201354980469,
        3.024754047393799,
        -5.032648086547852
      ]
    },
    {
      "mesh": 10,
      "name": "WindowsLevel2Left2",
      "rotation": [
        0,
        -0.7071070671081543,
        0,
        0.7071064710617065
      ],
      "scale": [
        1.1289159059524536,
        1.1289159059524536,
        1.1289159059524536
      ],
      "translation": [
        -5.439201354980469,
        3.024754047393799,
        -7.400409698486328
      ]
    },
    {
      "mesh": 9,
      "name": "WindowsLevel2Left1",
      "rotation": [
        0,
        -0.7071070671081543,
        0,
        0.7071064710617065
      ],
      "scale": [
        1.1289159059524536,
        1.1289159059524536,
        1.1289159059524536
      ],
      "translation": [
        -5.439201354980469,
        3.0169928073883057,
        -9.79023551940918
      ]
    },
    {
      "mesh": 9,
      "name": "WindowsLevel1Left1",
      "rotation": [
        0,
        -0.7071070671081543,
        0,
        0.7071064710617065
      ],
      "scale": [
        1.1289159059524536,
        1.1289159059524536,
        1.1289159059524536
      ],
      "translation": [
        -5.291751384735107,
        0.3859615623950958,
        -9.898602485656738
      ]
    },
    {
      "mesh": 9,
      "name": "WindowsLevel1Left2",
      "rotation": [
        0,
        -0.7071070671081543,
        0,
        0.7071064710617065
      ],
      "scale": [
        1.1289159059524536,
        1.1289159059524536,
        1.1289159059524536
      ],
      "translation": [
        -5.291751384735107,
        0.3859615623950958,
        -6.29771614074707
      ]
    },
    {
      "mesh": 9,
      "name": "WindowsLevel1Left3",
      "rotation": [
        0,
        -0.7071070671081543,
        0,
        0.7071064710617065
      ],
      "scale": [
        1.1289159059524536,
        1.1289159059524536,
        1.1289159059524536
      ],
      "translation": [
        -5.291751384735107,
        0.38736772537231445,
        -0.9112371206283569
      ]
    },
    {
      "mesh": 9,
      "name": "WindowsLevel2Front2",
      "scale": [
        1.1289159059524536,
        1.1289159059524536,
        1.1289159059524536
      ],
      "translation": [
        -1.5956075191497803,
        3.0317254066467285,
        1.7899689674377441
      ]
    },
    {
      "mesh": 11,
      "name": "WindowsLevel2Front1",
      "scale": [
        1.1289159059524536,
        1.1289159059524536,
        1.1289159059524536
      ],
      "translation": [
        -3.8098878860473633,
        3.0317254066467285,
        1.7899689674377441
      ]
    },
    {
      "mesh": 9,
      "name": "WindowsLevel2Right3",
      "rotation": [
        0,
        0.7071070671081543,
        0,
        0.7071065902709961
      ],
      "scale": [
        1.1289159059524536,
        1.1289159059524536,
        1.1289159059524536
      ],
      "translation": [
        9.057568550109863,
        3.0304458141326904,
        -7.404189109802246
      ]
    },
    {
      "mesh": 9,
      "name": "WindowsLevel2Right2",
      "rotation": [
        0,
        0.7071070671081543,
        0,
        0.7071065902709961
      ],
      "scale": [
        1.1289159059524536,
        1.1289159059524536,
        1.1289159059524536
      ],
      "translation": [
        9.057568550109863,
        3.0304458141326904,
        -3.876664876937866
      ]
    },
    {
      "mesh": 9,
      "name": "WindowsLevel2Right1",
      "rotation": [
        0,
        0.7071070671081543,
        0,
        0.7071065902709961
      ],
      "scale": [
        1.1289159059524536,
        1.1289159059524536,
        1.1289159059524536
      ],
      "translation": [
        9.057568550109863,
        3.0304458141326904,
        -1.3172627687454224
      ]
    },
    {
      "mesh": 9,
      "name": "WindowsLevel1Right1",
      "rotation": [
        0,
        0.7071070671081543,
        0,
        0.7071065902709961
      ],
      "scale": [
        1.1289159059524536,
        1.1289159059524536,
        1.1289159059524536
      ],
      "translation": [
        8.927498817443848,
        0.38750070333480835,
        -4.504276752471924
      ]
    },
    {
      "mesh": 12,
      "name": "Level1",
      "rotation": [
        0,
        0.7071070671081543,
        0,
        0.7071065902709961
      ],
      "translation": [
        10.799976348876953,
        0,
        1.7999992370605469
      ]
    },
    {
      "mesh": 13,
      "name": "WindowsLevel2Front4",
      "scale": [
        1.1289159059524536,
        1.1289159059524536,
        1.1289159059524536
      ],
      "translation": [
        3.705735206604004,
        3.0384984016418457,
        0.030877381563186646
      ]
    },
    {
      "mesh": 9,
      "name": "WindowsLevel2Front3",
      "scale": [
        1.1289159059524536,
        1.1289159059524536,
        1.1289159059524536
      ],
      "translation": [
        1.4086922407150269,
        3.0317254066467285,
        0.030636783689260483
      ]
    },
    {
      "mesh": 14,
      "name": "WindowsLevel3Left1",
      "rotation": [
        0,
        -0.7071070671081543,
        0,
        0.7071064710617065
      ],
      "translation": [
        -5.335633277893066,
        5.089469909667969,
        -9.33682918548584
      ]
    },
    {
      "mesh": 15,
      "name": "DoorSteps",
      "rotation": [
        0,
        0.7071070671081543,
        0,
        0.7071065902709961
      ],
      "translation": [
        -1.0045865774154663,
        -0.08449967950582504,
        -6.280313968658447
      ]
    },
    {
      "mesh": 16,
      "name": "DoorHandleBack",
      "rotation": [
        0,
        0.7071070671081543,
        0,
        0.7071065902709961
      ],
      "translation": [
        -0.9265164136886597,
        -0.021845905110239983,
        -6.359968662261963
      ]
    },
    {
      "mesh": 17,
      "name": "DoorBack",
      "rotation": [
        0,
        0.7071070671081543,
        0,
        0.7071065902709961
      ],
      "translation": [
        -1.0045865774154663,
        -0.08449967950582504,
        -6.280313968658447
      ]
    },
    {
      "mesh": 18,
      "name": "DoorHandleBalcony",
      "translation": [
        6.1528754234313965,
        2.717942714691162,
        -0.7298551201820374
      ]
    },
    {
      "mesh": 19,
      "name": "DoorBalcony",
      "translation": [
        6.073220729827881,
        2.6552886962890625,
        -0.8079250454902649
      ]
    },
    {
      "mesh": 20,
      "name": "DoorHandleKitchen",
      "rotation": [
        0,
        0.7071070671081543,
        0,
        0.7071065902709961
      ],
      "translation": [
        -0.9322280883789062,
        -0.02184641733765602,
        0.8067929148674011
      ]
    },
    {
      "mesh": 21,
      "name": "DoorKitchen",
      "rotation": [
        0,
        0.7071070671081543,
        0,
        0.7071065902709961
      ],
      "translation": [
        -1.0102980136871338,
        -0.08450019359588623,
        0.8864477276802063
      ]
    },
    {
      "mesh": 22,
      "name": "WindowsLevel1Front1",
      "scale": [
        1.1289159059524536,
        1.1289159059524536,
        1.1289159059524536
      ],
      "translation": [
        -4.49572229385376,
        0.3875006437301636,
        1.7233623266220093
      ]
    },
    {
      "mesh": 9,
      "name": "WindowsLevel1Front2",
      "scale": [
        1.1289159059524536,
        1.1289159059524536,
        1.1289159059524536
      ],
      "translation": [
        -0.8957219123840332,
        0.3875006437301636,
        1.7233623266220093
      ]
    },
    {
      "mesh": 9,
      "name": "WindowsLevel1Front6",
      "scale": [
        1.1289159059524536,
        1.1289159059524536,
        1.1289159059524536
      ],
      "translation": [
        6.304278373718262,
        0.3875006437301636,
        -0.07455553114414215
      ]
    },
    {
      "mesh": 9,
      "name": "WindowsLevel1Front5",
      "scale": [
        1.1289159059524536,
        1.1289159059524536,
        1.1289159059524536
      ],
      "translation": [
        4.504278182983398,
        0.3875006437301636,
        -0.07455553114414215
      ]
    },
    {
      "mesh": 9,
      "name": "WindowsLevel1Front4",
      "scale": [
        1.1289159059524536,
        1.1289159059524536,
        1.1289159059524536
      ],
      "translation": [
        2.704277992248535,
        0.3875006437301636,
        -0.07455553114414215
      ]
    },
    {
      "mesh": 23,
      "name": "Entrance"
    },
    {
      "mesh": 24,
      "name": "RoofWood",
      "translation": [
        -2.700000047683716,
        2.8161935806274414,
        -4.5
      ]
    },
    {
      "mesh": 25,
      "name": "RoofFrame",
      "translation": [
        -2.688809633255005,
        2.8055951595306396,
        -4.5
      ]
    },
    {
      "mesh": 26,
      "name": "Level2",
      "translation": [
        -2.700000047683716,
        2.799999952316284,
        -4.5
      ]
    },
    {
      "mesh": 27,
      "name": "Foundation"
    },
    {
      "mesh": 28,
      "name": "Level2Frame",
      "translation": [
        10.050000190734863,
        1.399999976158142,
        -0.8999999761581421
      ]
    },
    {
      "mesh": 9,
      "name": "WindowsLevel1Front3",
      "scale": [
        1.1289159059524536,
        1.1289159059524536,
        1.1289159059524536
      ],
      "translation": [
        0.9042776823043823,
        0.3875006437301636,
        -0.07455553114414215
      ]
    },
    {
      "mesh": 17,
      "name": "DoorEntrance",
      "translation": [
        10.330543518066406,
        -0.08450019359588623,
        -0.8129944801330566
      ]
    },
    {
      "mesh": 29,
      "name": "DoorFrames",
      "translation": [
        10.330543518066406,
        -0.08450019359588623,
        -0.8129944801330566
      ]
    },
    {
      "mesh": 16,
      "name": "DoorHandleEntrance",
      "translation": [
        10.410198211669922,
        -0.021846413612365723,
        -0.7349245548248291
      ]
    },
    {
      "mesh": 30,
      "name": "WindowsLevel3Left2",
      "rotation": [
        0,
        -0.7071070671081543,
        0,
        0.7071064710617065
      ],
      "translation": [
        -5.335633277893066,
        5.089469909667969,
        -7.0403361320495605
      ]
    },
    {
      "mesh": 31,
      "name": "WindowsLevel3Front1",
      "translation": [
        -2.717628240585327,
        5.405849933624268,
        2.0348923206329346
      ]
    },
    {
      "mesh": 32,
      "name": "WindowFrames",
      "translation": [
        -2.717628240585327,
        5.405849933624268,
        2.0348923206329346
      ]
    },
    {
      "mesh": 33,
      "name": "Balcony",
      "translation": [
        0.6311628818511963,
        3.622124195098877,
        0.6751337647438049
      ]
    },
    {
      "mesh": 34,
      "name": "BackBalcony",
      "rotation": [
        0,
        1,
        0,
        7.589671326968528e-07
      ],
      "translation": [
        5.573083877563477,
        1.6846988201141357,
        -6.944311141967773
      ]
    },
    {
      "mesh": 35,
      "name": "Level3Frames",
      "rotation": [
        0.5000004172325134,
        -0.4999999403953552,
        -0.4999995827674866,
        0.5000000596046448
      ],
      "translation": [
        9.079602241516113,
        4.051145553588867,
        -3.047302722930908
      ]
    }
  ],
  "materials": [
    {
      "name": "RustedMetal_review",
      "pbrMetallicRoughness": {
        "baseColorTexture": {
          "index": 0
        },
        "metallicFactor": 0,
        "roughnessFactor": 0.75
      }
    },
    {
      "name": "Sign_review",
      "pbrMetallicRoughness": {
        "baseColorTexture": {
          "index": 1
        },
        "metallicFactor": 0,
        "roughnessFactor": 0.8799999952316284
      }
    },
    {
      "name": "LogEdgeWeathered_review",
      "pbrMetallicRoughness": {
        "baseColorTexture": {
          "index": 2
        },
        "metallicFactor": 0,
        "roughnessFactor": 0.8799999952316284
      }
    },
    {
      "name": "Wood_review",
      "pbrMetallicRoughness": {
        "baseColorTexture": {
          "index": 3
        },
        "metallicFactor": 0,
        "roughnessFactor": 0.8799999952316284
      }
    },
    {
      "name": "RoofTiles_review",
      "pbrMetallicRoughness": {
        "baseColorTexture": {
          "index": 4
        },
        "metallicFactor": 0,
        "roughnessFactor": 0.8799999952316284
      }
    },
    {
      "name": "Brick_review",
      "pbrMetallicRoughness": {
        "baseColorTexture": {
          "index": 5
        },
        "metallicFactor": 0,
        "roughnessFactor": 0.8799999952316284
      }
    },
    {
      "name": "WindowBlue1_review",
      "pbrMetallicRoughness": {
        "baseColorTexture": {
          "index": 6
        },
        "metallicFactor": 0,
        "roughnessFactor": 0.8799999952316284
      }
    },
    {
      "name": "StoneWall_review",
      "pbrMetallicRoughness": {
        "baseColorTexture": {
          "index": 7
        },
        "metallicFactor": 0,
        "roughnessFactor": 0.8799999952316284
      }
    },
    {
      "name": "DarkStone_review",
      "pbrMetallicRoughness": {
        "baseColorTexture": {
          "index": 8
        },
        "metallicFactor": 0,
        "roughnessFactor": 0.8799999952316284
      }
    },
    {
      "name": "DoorType1_2_review",
      "pbrMetallicRoughness": {
        "baseColorTexture": {
          "index": 9
        },
        "metallicFactor": 0,
        "roughnessFactor": 0.8799999952316284
      }
    }
  ],
  "meshes": [
    {
      "name": "Cylinder.002",
      "primitives": [
        {
          "attributes": {
            "POSITION": 0,
            "NORMAL": 1,
            "TEXCOORD_0": 2
          },
          "indices": 3,
          "material": 0
        },
        {
          "attributes": {
            "POSITION": 4,
            "NORMAL": 5,
            "TEXCOORD_0": 6
          },
          "indices": 7,
          "material": 1
        },
        {
          "attributes": {
            "POSITION": 8,
            "NORMAL": 9,
            "TEXCOORD_0": 10
          },
          "indices": 11,
          "material": 2
        }
      ]
    },
    {
      "name": "Cube.136",
      "primitives": [
        {
          "attributes": {
            "POSITION": 12,
            "NORMAL": 13,
            "TEXCOORD_0": 14
          },
          "indices": 15,
          "material": 2
        }
      ]
    },
    {
      "name": "Cube.117",
      "primitives": [
        {
          "attributes": {
            "POSITION": 16,
            "NORMAL": 17,
            "TEXCOORD_0": 18
          },
          "indices": 19,
          "material": 2
        }
      ]
    },
    {
      "name": "Cube.116",
      "primitives": [
        {
          "attributes": {
            "POSITION": 20,
            "NORMAL": 21,
            "TEXCOORD_0": 22
          },
          "indices": 23,
          "material": 2
        }
      ]
    },
    {
      "name": "Cube.059",
      "primitives": [
        {
          "attributes": {
            "POSITION": 24,
            "NORMAL": 25,
            "TEXCOORD_0": 26
          },
          "indices": 27,
          "material": 3
        }
      ]
    },
    {
      "name": "Cube.028",
      "primitives": [
        {
          "attributes": {
            "POSITION": 28,
            "NORMAL": 29,
            "TEXCOORD_0": 30
          },
          "indices": 31,
          "material": 4
        }
      ]
    },
    {
      "name": "Cube.093",
      "primitives": [
        {
          "attributes": {
            "POSITION": 32,
            "NORMAL": 33,
            "TEXCOORD_0": 34
          },
          "indices": 35,
          "material": 0
        }
      ]
    },
    {
      "name": "Cube.092",
      "primitives": [
        {
          "attributes": {
            "POSITION": 36,
            "NORMAL": 37,
            "TEXCOORD_0": 38
          },
          "indices": 39,
          "material": 5
        }
      ]
    },
    {
      "name": "Circle.004",
      "primitives": [
        {
          "attributes": {
            "POSITION": 40,
            "NORMAL": 41,
            "TEXCOORD_0": 42
          },
          "indices": 43,
          "material": 6
        }
      ]
    },
    {
      "name": "Cube.056",
      "primitives": [
        {
          "attributes": {
            "POSITION": 44,
            "NORMAL": 45,
            "TEXCOORD_0": 46
          },
          "indices": 47,
          "material": 6
        }
      ]
    },
    {
      "name": "Cube.109",
      "primitives": [
        {
          "attributes": {
            "POSITION": 48,
            "NORMAL": 49,
            "TEXCOORD_0": 50
          },
          "indices": 47,
          "material": 6
        }
      ]
    },
    {
      "name": "Cube.115",
      "primitives": [
        {
          "attributes": {
            "POSITION": 51,
            "NORMAL": 52,
            "TEXCOORD_0": 53
          },
          "indices": 47,
          "material": 6
        }
      ]
    },
    {
      "name": "Cube.062",
      "primitives": [
        {
          "attributes": {
            "POSITION": 54,
            "NORMAL": 55,
            "TEXCOORD_0": 56
          },
          "indices": 57,
          "material": 7
        }
      ]
    },
    {
      "name": "Cube.087",
      "primitives": [
        {
          "attributes": {
            "POSITION": 58,
            "NORMAL": 59,
            "TEXCOORD_0": 60
          },
          "indices": 47,
          "material": 6
        }
      ]
    },
    {
      "name": "Circle.006",
      "primitives": [
        {
          "attributes": {
            "POSITION": 61,
            "NORMAL": 62,
            "TEXCOORD_0": 63
          },
          "indices": 43,
          "material": 6
        }
      ]
    },
    {
      "name": "Cube.131",
      "primitives": [
        {
          "attributes": {
            "POSITION": 64,
            "NORMAL": 65,
            "TEXCOORD_0": 66
          },
          "indices": 67,
          "material": 8
        }
      ]
    },
    {
      "name": "Cube.072",
      "primitives": [
        {
          "attributes": {
            "POSITION": 68,
            "NORMAL": 69,
            "TEXCOORD_0": 70
          },
          "indices": 71,
          "material": 0
        }
      ]
    },
    {
      "name": "Cube.070",
      "primitives": [
        {
          "attributes": {
            "POSITION": 72,
            "NORMAL": 73,
            "TEXCOORD_0": 74
          },
          "indices": 75,
          "material": 9
        }
      ]
    },
    {
      "name": "Cube.080",
      "primitives": [
        {
          "attributes": {
            "POSITION": 76,
            "NORMAL": 77,
            "TEXCOORD_0": 78
          },
          "indices": 71,
          "material": 0
        }
      ]
    },
    {
      "name": "Cube.078",
      "primitives": [
        {
          "attributes": {
            "POSITION": 79,
            "NORMAL": 80,
            "TEXCOORD_0": 81
          },
          "indices": 75,
          "material": 9
        }
      ]
    },
    {
      "name": "Cube.076",
      "primitives": [
        {
          "attributes": {
            "POSITION": 82,
            "NORMAL": 83,
            "TEXCOORD_0": 84
          },
          "indices": 71,
          "material": 0
        }
      ]
    },
    {
      "name": "Cube.074",
      "primitives": [
        {
          "attributes": {
            "POSITION": 85,
            "NORMAL": 86,
            "TEXCOORD_0": 87
          },
          "indices": 75,
          "material": 9
        }
      ]
    },
    {
      "name": "Cube.114",
      "primitives": [
        {
          "attributes": {
            "POSITION": 88,
            "NORMAL": 89,
            "TEXCOORD_0": 90
          },
          "indices": 47,
          "material": 6
        }
      ]
    },
    {
      "name": "Cube.029",
      "primitives": [
        {
          "attributes": {
            "POSITION": 91,
            "NORMAL": 92,
            "TEXCOORD_0": 93
          },
          "indices": 94,
          "material": 3
        }
      ]
    },
    {
      "name": "Cube.026",
      "primitives": [
        {
          "attributes": {
            "POSITION": 95,
            "NORMAL": 96,
            "TEXCOORD_0": 97
          },
          "indices": 98,
          "material": 3
        }
      ]
    },
    {
      "name": "Cube.023",
      "primitives": [
        {
          "attributes": {
            "POSITION": 99,
            "NORMAL": 100,
            "TEXCOORD_0": 101
          },
          "indices": 102,
          "material": 3
        }
      ]
    },
    {
      "name": "Cube.013",
      "primitives": [
        {
          "attributes": {
            "POSITION": 103,
            "NORMAL": 104,
            "TEXCOORD_0": 105
          },
          "indices": 106,
          "material": 7
        }
      ]
    },
    {
      "name": "Cube.012",
      "primitives": [
        {
          "attributes": {
            "POSITION": 107,
            "NORMAL": 108,
            "TEXCOORD_0": 109
          },
          "indices": 110,
          "material": 8
        }
      ]
    },
    {
      "name": "Cube.007",
      "primitives": [
        {
          "attributes": {
            "POSITION": 111,
            "NORMAL": 112,
            "TEXCOORD_0": 113
          },
          "indices": 114,
          "material": 8
        }
      ]
    },
    {
      "name": "Cube.130",
      "primitives": [
        {
          "attributes": {
            "POSITION": 115,
            "NORMAL": 116,
            "TEXCOORD_0": 117
          },
          "indices": 118,
          "material": 3
        }
      ]
    },
    {
      "name": "Circle.002",
      "primitives": [
        {
          "attributes": {
            "POSITION": 119,
            "NORMAL": 120,
            "TEXCOORD_0": 121
          },
          "indices": 43,
          "material": 6
        }
      ]
    },
    {
      "name": "Circle.001",
      "primitives": [
        {
          "attributes": {
            "POSITION": 122,
            "NORMAL": 123,
            "TEXCOORD_0": 124
          },
          "indices": 125,
          "material": 6
        }
      ]
    },
    {
      "name": "Circle",
      "primitives": [
        {
          "attributes": {
            "POSITION": 126,
            "NORMAL": 127,
            "TEXCOORD_0": 128
          },
          "indices": 129,
          "material": 3
        }
      ]
    },
    {
      "name": "Cube.001",
      "primitives": [
        {
          "attributes": {
            "POSITION": 130,
            "NORMAL": 131,
            "TEXCOORD_0": 132
          },
          "indices": 133,
          "material": 3
        }
      ]
    },
    {
      "name": "Cube.134",
      "primitives": [
        {
          "attributes": {
            "POSITION": 134,
            "NORMAL": 135,
            "TEXCOORD_0": 136
          },
          "indices": 137,
          "material": 3
        }
      ]
    },
    {
      "name": "Cube.107",
      "primitives": [
        {
          "attributes": {
            "POSITION": 138,
            "NORMAL": 139,
            "TEXCOORD_0": 140
          },
          "indices": 141,
          "material": 3
        }
      ]
    }
  ],
  "textures": [
    {
      "sampler": 0,
      "source": 0
    },
    {
      "sampler": 0,
      "source": 1
    },
    {
      "sampler": 0,
      "source": 2
    },
    {
      "sampler": 0,
      "source": 3
    },
    {
      "sampler": 0,
      "source": 4
    },
    {
      "sampler": 0,
      "source": 5
    },
    {
      "sampler": 0,
      "source": 6
    },
    {
      "sampler": 0,
      "source": 7
    },
    {
      "sampler": 0,
      "source": 8
    },
    {
      "sampler": 0,
      "source": 9
    }
  ],
  "images": [
    {
      "mimeType": "image/jpeg",
      "name": "Rusted Metal",
      "uri": "textures/Rusted%20Metal.jpg"
    },
    {
      "mimeType": "image/jpeg",
      "name": "ThePaintedWenchSign",
      "uri": "textures/ThePaintedWenchSign.jpg"
    },
    {
      "mimeType": "image/jpeg",
      "name": "TreeLogEdgeWeathered",
      "uri": "textures/TreeLogEdgeWeathered.jpg"
    },
    {
      "mimeType": "image/jpeg",
      "name": "Wood",
      "uri": "textures/Wood.jpg"
    },
    {
      "mimeType": "image/jpeg",
      "name": "RoofTiles",
      "uri": "textures/RoofTiles.jpg"
    },
    {
      "mimeType": "image/jpeg",
      "name": "GreyBricks",
      "uri": "textures/GreyBricks.jpg"
    },
    {
      "mimeType": "image/jpeg",
      "name": "WindowBlue1",
      "uri": "textures/WindowBlue1.jpg"
    },
    {
      "mimeType": "image/jpeg",
      "name": "StoneWall1",
      "uri": "textures/StoneWall1.jpg"
    },
    {
      "mimeType": "image/jpeg",
      "name": "DarkStone",
      "uri": "textures/DarkStone.jpg"
    },
    {
      "mimeType": "image/jpeg",
      "name": "DoorType1_2",
      "uri": "textures/DoorType1_2.jpg"
    }
  ],
  "accessors": [
    {
      "bufferView": 0,
      "componentType": 5126,
      "count": 1024,
      "max": [
        -1.1478290557861328,
        0.08036172389984131,
        0.9247756004333496
      ],
      "min": [
        -1.2457234859466553,
        -0.38066011667251587,
        -0.01468630600720644
      ],
      "type": "VEC3"
    },
    {
      "bufferView": 1,
      "componentType": 5126,
      "count": 1024,
      "type": "VEC3"
    },
    {
      "bufferView": 2,
      "componentType": 5126,
      "count": 1024,
      "type": "VEC2"
    },
    {
      "bufferView": 3,
      "componentType": 5123,
      "count": 1920,
      "type": "SCALAR"
    },
    {
      "bufferView": 4,
      "componentType": 5126,
      "count": 124,
      "max": [
        -1.1808093786239624,
        -0.12513449788093567,
        0.9584177732467651
      ],
      "min": [
        -1.210809350013733,
        -0.5526062250137329,
        -0.05782878398895264
      ],
      "type": "VEC3"
    },
    {
      "bufferView": 5,
      "componentType": 5126,
      "count": 124,
      "type": "VEC3"
    },
    {
      "bufferView": 6,
      "componentType": 5126,
      "count": 124,
      "type": "VEC2"
    },
    {
      "bufferView": 7,
      "componentType": 5123,
      "count": 288,
      "type": "SCALAR"
    },
    {
      "bufferView": 8,
      "componentType": 5126,
      "count": 88,
      "max": [
        -1.1527377367019653,
        0.08072029054164886,
        0.9745628833770752
      ],
      "min": [
        -1.2388828992843628,
        -0.5526062250137329,
        -0.1394975185394287
      ],
      "type": "VEC3"
    },
    {
      "bufferView": 9,
      "componentType": 5126,
      "count": 88,
      "type": "VEC3"
    },
    {
      "bufferView": 10,
      "componentType": 5126,
      "count": 88,
      "type": "VEC2"
    },
    {
      "bufferView": 11,
      "componentType": 5123,
      "count": 150,
      "type": "SCALAR"
    },
    {
      "bufferView": 12,
      "componentType": 5126,
      "count": 128,
      "max": [
        5.3008317947387695,
        0.19515003263950348,
        1.4980679750442505
      ],
      "min": [
        0.41965341567993164,
        -0.04262262582778931,
        -1.2819005250930786
      ],
      "type": "VEC3"
    },
    {
      "bufferView": 13,
      "componentType": 5126,
      "count": 128,
      "type": "VEC3"
    },
    {
      "bufferView": 14,
      "componentType": 5126,
      "count": 128,
      "type": "VEC2"
    },
    {
      "bufferView": 15,
      "componentType": 5123,
      "count": 192,
      "type": "SCALAR"
    },
    {
      "bufferView": 16,
      "componentType": 5126,
      "count": 40,
      "max": [
        14.382696151733398,
        1.2516186237335205,
        6.652567386627197
      ],
      "min": [
        -3.112950563430786,
        -1.698668360710144,
        -6.658553123474121
      ],
      "type": "VEC3"
    },
    {
      "bufferView": 17,
      "componentType": 5126,
      "count": 40,
      "type": "VEC3"
    },
    {
      "bufferView": 18,
      "componentType": 5126,
      "count": 40,
      "type": "VEC2"
    },
    {
      "bufferView": 19,
      "componentType": 5123,
      "count": 60,
      "type": "SCALAR"
    },
    {
      "bufferView": 20,
      "componentType": 5126,
      "count": 232,
      "max": [
        8.30715560913086,
        -0.07006185501813889,
        1.0799528360366821
      ],
      "min": [
        -0.5492932796478271,
        -2.1784863471984863,
        -0.4778926968574524
      ],
      "type": "VEC3"
    },
    {
      "bufferView": 21,
      "componentType": 5126,
      "count": 232,
      "type": "VEC3"
    },
    {
      "bufferView": 22,
      "componentType": 5126,
      "count": 232,
      "type": "VEC2"
    },
    {
      "bufferView": 23,
      "componentType": 5123,
      "count": 348,
      "type": "SCALAR"
    },
    {
      "bufferView": 24,
      "componentType": 5126,
      "count": 58,
      "max": [
        11.850000381469727,
        3.75,
        6.449999809265137
      ],
      "min": [
        -2.8499999046325684,
        1.249999761581421,
        -6.449999809265137
      ],
      "type": "VEC3"
    },
    {
      "bufferView": 25,
      "componentType": 5126,
      "count": 58,
      "type": "VEC3"
    },
    {
      "bufferView": 26,
      "componentType": 5126,
      "count": 58,
      "type": "VEC2"
    },
    {
      "bufferView": 27,
      "componentType": 5123,
      "count": 96,
      "type": "SCALAR"
    },
    {
      "bufferView": 28,
      "componentType": 5126,
      "count": 312,
      "max": [
        14.205094337463379,
        3.901064157485962,
        6.449999809265137
      ],
      "min": [
        -2.9502642154693604,
        -1.5274028778076172,
        -6.449999809265137
      ],
      "type": "VEC3"
    },
    {
      "bufferView": 29,
      "componentType": 5126,
      "count": 312,
      "type": "VEC3"
    },
    {
      "bufferView": 30,
      "componentType": 5126,
      "count": 312,
      "type": "VEC2"
    },
    {
      "bufferView": 31,
      "componentType": 5123,
      "count": 468,
      "type": "SCALAR"
    },
    {
      "bufferView": 32,
      "componentType": 5126,
      "count": 590,
      "max": [
        14.277828216552734,
        2.8906023502349854,
        0.19601953029632568
      ],
      "min": [
        -0.7302169799804688,
        1.8012135028839111,
        -5.5293731689453125
      ],
      "type": "VEC3"
    },
    {
      "bufferView": 33,
      "componentType": 5126,
      "count": 590,
      "type": "VEC3"
    },
    {
      "bufferView": 34,
      "componentType": 5126,
      "count": 590,
      "type": "VEC2"
    },
    {
      "bufferView": 35,
      "componentType": 5123,
      "count": 1650,
      "type": "SCALAR"
    },
    {
      "bufferView": 36,
      "componentType": 5126,
      "count": 184,
      "max": [
        14.978490829467773,
        4.084076404571533,
        0.8840439915657043
      ],
      "min": [
        -1.390798568725586,
        -9.45067024230957,
        -6.184887409210205
      ],
      "type": "VEC3"
    },
    {
      "bufferView": 37,
      "componentType": 5126,
      "count": 184,
      "type": "VEC3"
    },
    {
      "bufferView": 38,
      "componentType": 5126,
      "count": 184,
      "type": "VEC2"
    },
    {
      "bufferView": 39,
      "componentType": 5123,
      "count": 324,
      "type": "SCALAR"
    },
    {
      "bufferView": 40,
      "componentType": 5126,
      "count": 13,
      "max": [
        0.34059399366378784,
        0.34059399366378784,
        -0.026968862861394882
      ],
      "min": [
        -0.34059399366378784,
        -1.5834633870781545e-07,
        -0.02696916274726391
      ],
      "type": "VEC3"
    },
    {
      "bufferView": 41,
      "componentType": 5126,
      "count": 13,
      "type": "VEC3"
    },
    {
      "bufferView": 42,
      "componentType": 5126,
      "count": 13,
      "type": "VEC2"
    },
    {
      "bufferView": 43,
      "componentType": 5123,
      "count": 33,
      "type": "SCALAR"
    },
    {
      "bufferView": 44,
      "componentType": 5126,
      "count": 8,
      "max": [
        0.39680105447769165,
        0.4058336615562439,
        0.0021514892578125
      ],
      "min": [
        -0.39680105447769165,
        -0.4058336913585663,
        0.0021513402462005615
      ],
      "type": "VEC3"
    },
    {
      "bufferView": 45,
      "componentType": 5126,
      "count": 8,
      "type": "VEC3"
    },
    {
      "bufferView": 46,
      "componentType": 5126,
      "count": 8,
      "type": "VEC2"
    },
    {
      "bufferView": 47,
      "componentType": 5123,
      "count": 12,
      "type": "SCALAR"
    },
    {
      "bufferView": 48,
      "componentType": 5126,
      "count": 8,
      "max": [
        0.39680105447769165,
        0.4058336615562439,
        0.0021514892578125
      ],
      "min": [
        -0.39680105447769165,
        -0.4058336913585663,
        0.0021513402462005615
      ],
      "type": "VEC3"
    },
    {
      "bufferView": 49,
      "componentType": 5126,
      "count": 8,
      "type": "VEC3"
    },
    {
      "bufferView": 50,
      "componentType": 5126,
      "count": 8,
      "type": "VEC2"
    },
    {
      "bufferView": 51,
      "componentType": 5126,
      "count": 8,
      "max": [
        0.39680105447769165,
        0.4058336615562439,
        0.0021514892578125
      ],
      "min": [
        -0.39680105447769165,
        -0.4058336913585663,
        0.0021513402462005615
      ],
      "type": "VEC3"
    },
    {
      "bufferView": 52,
      "componentType": 5126,
      "count": 8,
      "type": "VEC3"
    },
    {
      "bufferView": 53,
      "componentType": 5126,
      "count": 8,
      "type": "VEC2"
    },
    {
      "bufferView": 54,
      "componentType": 5126,
      "count": 1442,
      "max": [
        12.750009536743164,
        1.25,
        -1.6499700546264648
      ],
      "min": [
        -0.14999401569366455,
        -1.250001311302185,
        -16.349977493286133
      ],
      "type": "VEC3"
    },
    {
      "bufferView": 55,
      "componentType": 5126,
      "count": 1442,
      "type": "VEC3"
    },
    {
      "bufferView": 56,
      "componentType": 5126,
      "count": 1442,
      "type": "VEC2"
    },
    {
      "bufferView": 57,
      "componentType": 5123,
      "count": 2250,
      "type": "SCALAR"
    },
    {
      "bufferView": 58,
      "componentType": 5126,
      "count": 8,
      "max": [
        0.39680105447769165,
        0.4058336615562439,
        0.0021514892578125
      ],
      "min": [
        -0.39680105447769165,
        -0.4058336913585663,
        0.0021513402462005615
      ],
      "type": "VEC3"
    },
    {
      "bufferView": 59,
      "componentType": 5126,
      "count": 8,
      "type": "VEC3"
    },
    {
      "bufferView": 60,
      "componentType": 5126,
      "count": 8,
      "type": "VEC2"
    },
    {
      "bufferView": 61,
      "componentType": 5126,
      "count": 13,
      "max": [
        0.34059399366378784,
        0.34059399366378784,
        -0.026968862861394882
      ],
      "min": [
        -0.34059399366378784,
        -1.5834633870781545e-07,
        -0.02696916274726391
      ],
      "type": "VEC3"
    },
    {
      "bufferView": 62,
      "componentType": 5126,
      "count": 13,
      "type": "VEC3"
    },
    {
      "bufferView": 63,
      "componentType": 5126,
      "count": 13,
      "type": "VEC2"
    },
    {
      "bufferView": 64,
      "componentType": 5126,
      "count": 60,
      "max": [
        0.7489823698997498,
        -1.0683518648147583,
        12.084108352661133
      ],
      "min": [
        -7.915743827819824,
        -1.1898691654205322,
        0.7190541625022888
      ],
      "type": "VEC3"
    },
    {
      "bufferView": 65,
      "componentType": 5126,
      "count": 60,
      "type": "VEC3"
    },
    {
      "bufferView": 66,
      "componentType": 5126,
      "count": 60,
      "type": "VEC2"
    },
    {
      "bufferView": 67,
      "componentType": 5123,
      "count": 90,
      "type": "SCALAR"
    },
    {
      "bufferView": 68,
      "componentType": 5126,
      "count": 263,
      "max": [
        0.4630659520626068,
        -0.14078082144260406,
        1.047410488128662
      ],
      "min": [
        0.34078338742256165,
        -0.30050909519195557,
        0.9937681555747986
      ],
      "type": "VEC3"
    },
    {
      "bufferView": 69,
      "componentType": 5126,
      "count": 263,
      "type": "VEC3"
    },
    {
      "bufferView": 70,
      "componentType": 5126,
      "count": 263,
      "type": "VEC2"
    },
    {
      "bufferView": 71,
      "componentType": 5123,
      "count": 1098,
      "type": "SCALAR"
    },
    {
      "bufferView": 72,
      "componentType": 5126,
      "count": 4,
      "max": [
        0.5689333081245422,
        1,
        1.0725808143615723
      ],
      "min": [
        -0.5689333081245422,
        -1.0683518648147583,
        1.0725802183151245
      ],
      "type": "VEC3"
    },
    {
      "bufferView": 73,
      "componentType": 5126,
      "count": 4,
      "type": "VEC3"
    },
    {
      "bufferView": 74,
      "componentType": 5126,
      "count": 4,
      "type": "VEC2"
    },
    {
      "bufferView": 75,
      "componentType": 5123,
      "count": 6,
      "type": "SCALAR"
    },
    {
      "bufferView": 76,
      "componentType": 5126,
      "count": 263,
      "max": [
        0.4630659520626068,
        -0.14078082144260406,
        1.047410488128662
      ],
      "min": [
        0.34078338742256165,
        -0.30050909519195557,
        0.9937681555747986
      ],
      "type": "VEC3"
    },
    {
      "bufferView": 77,
      "componentType": 5126,
      "count": 263,
      "type": "VEC3"
    },
    {
      "bufferView": 78,
      "componentType": 5126,
      "count": 263,
      "type": "VEC2"
    },
    {
      "bufferView": 79,
      "componentType": 5126,
      "count": 4,
      "max": [
        0.5689333081245422,
        1,
        1.0725808143615723
      ],
      "min": [
        -0.5689333081245422,
        -1.0683518648147583,
        1.0725802183151245
      ],
      "type": "VEC3"
    },
    {
      "bufferView": 80,
      "componentType": 5126,
      "count": 4,
      "type": "VEC3"
    },
    {
      "bufferView": 81,
      "componentType": 5126,
      "count": 4,
      "type": "VEC2"
    },
    {
      "bufferView": 82,
      "componentType": 5126,
      "count": 263,
      "max": [
        0.4630659520626068,
        -0.14078082144260406,
        1.047410488128662
      ],
      "min": [
        0.34078338742256165,
        -0.30050909519195557,
        0.9937681555747986
      ],
      "type": "VEC3"
    },
    {
      "bufferView": 83,
      "componentType": 5126,
      "count": 263,
      "type": "VEC3"
    },
    {
      "bufferView": 84,
      "componentType": 5126,
      "count": 263,
      "type": "VEC2"
    },
    {
      "bufferView": 85,
      "componentType": 5126,
      "count": 4,
      "max": [
        0.5689333081245422,
        1,
        1.0725808143615723
      ],
      "min": [
        -0.5689333081245422,
        -1.0683518648147583,
        1.0725802183151245
      ],
      "type": "VEC3"
    },
    {
      "bufferView": 86,
      "componentType": 5126,
      "count": 4,
      "type": "VEC3"
    },
    {
      "bufferView": 87,
      "componentType": 5126,
      "count": 4,
      "type": "VEC2"
    },
    {
      "bufferView": 88,
      "componentType": 5126,
      "count": 8,
      "max": [
        0.39680105447769165,
        0.4058336615562439,
        0.0021514892578125
      ],
      "min": [
        -0.39680105447769165,
        -0.4058336913585663,
        0.0021513402462005615
      ],
      "type": "VEC3"
    },
    {
      "bufferView": 89,
      "componentType": 5126,
      "count": 8,
      "type": "VEC3"
    },
    {
      "bufferView": 90,
      "componentType": 5126,
      "count": 8,
      "type": "VEC2"
    },
    {
      "bufferView": 91,
      "componentType": 5126,
      "count": 16,
      "max": [
        11.490778923034668,
        1.8021427392959595,
        0
      ],
      "min": [
        9.149999618530273,
        -1.250001311302185,
        -3.594454765319824
      ],
      "type": "VEC3"
    },
    {
      "bufferView": 92,
      "componentType": 5126,
      "count": 16,
      "type": "VEC3"
    },
    {
      "bufferView": 93,
      "componentType": 5126,
      "count": 16,
      "type": "VEC2"
    },
    {
      "bufferView": 94,
      "componentType": 5123,
      "count": 30,
      "type": "SCALAR"
    },
    {
      "bufferView": 95,
      "componentType": 5126,
      "count": 92,
      "max": [
        14.20043659210205,
        3.8848702907562256,
        6.449999809265137
      ],
      "min": [
        -2.9502642154693604,
        -1.5982645750045776,
        -6.450000286102295
      ],
      "type": "VEC3"
    },
    {
      "bufferView": 96,
      "componentType": 5126,
      "count": 92,
      "type": "VEC3"
    },
    {
      "bufferView": 97,
      "componentType": 5126,
      "count": 92,
      "type": "VEC2"
    },
    {
      "bufferView": 98,
      "componentType": 5123,
      "count": 138,
      "type": "SCALAR"
    },
    {
      "bufferView": 99,
      "componentType": 5126,
      "count": 956,
      "max": [
        14.382696151733398,
        3.8459010124206543,
        6.652567386627197
      ],
      "min": [
        -3.112950563430786,
        -1.698668360710144,
        -6.670454978942871
      ],
      "type": "VEC3"
    },
    {
      "bufferView": 100,
      "componentType": 5126,
      "count": 956,
      "type": "VEC3"
    },
    {
      "bufferView": 101,
      "componentType": 5126,
      "count": 956,
      "type": "VEC2"
    },
    {
      "bufferView": 102,
      "componentType": 5123,
      "count": 1482,
      "type": "SCALAR"
    },
    {
      "bufferView": 103,
      "componentType": 5126,
      "count": 330,
      "max": [
        11.850000381469727,
        1.25,
        6.449999809265137
      ],
      "min": [
        -2.8499999046325684,
        -1.25,
        -6.449999809265137
      ],
      "type": "VEC3"
    },
    {
      "bufferView": 104,
      "componentType": 5126,
      "count": 330,
      "type": "VEC3"
    },
    {
      "bufferView": 105,
      "componentType": 5126,
      "count": 330,
      "type": "VEC2"
    },
    {
      "bufferView": 106,
      "componentType": 5123,
      "count": 750,
      "type": "SCALAR"
    },
    {
      "bufferView": 107,
      "componentType": 5126,
      "count": 384,
      "max": [
        9.050000190734863,
        -0.9499999284744263,
        1.8499999046325684
      ],
      "min": [
        -5.450000762939453,
        -1.250001072883606,
        -10.850000381469727
      ],
      "type": "VEC3"
    },
    {
      "bufferView": 108,
      "componentType": 5126,
      "count": 384,
      "type": "VEC3"
    },
    {
      "bufferView": 109,
      "componentType": 5126,
      "count": 384,
      "type": "VEC2"
    },
    {
      "bufferView": 110,
      "componentType": 5123,
      "count": 576,
      "type": "SCALAR"
    },
    {
      "bufferView": 111,
      "componentType": 5126,
      "count": 120,
      "max": [
        -0.8489351272583008,
        0.1500001847743988,
        2.917943239212036
      ],
      "min": [
        -15.655149459838867,
        -0.14999991655349731,
        -10.11383056640625
      ],
      "type": "VEC3"
    },
    {
      "bufferView": 112,
      "componentType": 5126,
      "count": 120,
      "type": "VEC3"
    },
    {
      "bufferView": 113,
      "componentType": 5126,
      "count": 120,
      "type": "VEC2"
    },
    {
      "bufferView": 114,
      "componentType": 5123,
      "count": 180,
      "type": "SCALAR"
    },
    {
      "bufferView": 115,
      "componentType": 5126,
      "count": 176,
      "max": [
        0.7686129212379456,
        3.893580436706543,
        2.468055486679077
      ],
      "min": [
        -10.616071701049805,
        -1.0683518648147583,
        -6.235933303833008
      ],
      "type": "VEC3"
    },
    {
      "bufferView": 116,
      "componentType": 5126,
      "count": 176,
      "type": "VEC3"
    },
    {
      "bufferView": 117,
      "componentType": 5126,
      "count": 176,
      "type": "VEC2"
    },
    {
      "bufferView": 118,
      "componentType": 5123,
      "count": 264,
      "type": "SCALAR"
    },
    {
      "bufferView": 119,
      "componentType": 5126,
      "count": 13,
      "max": [
        0.34059399366378784,
        0.34059399366378784,
        -0.026968862861394882
      ],
      "min": [
        -0.34059399366378784,
        -1.5834633870781545e-07,
        -0.02696916274726391
      ],
      "type": "VEC3"
    },
    {
      "bufferView": 120,
      "componentType": 5126,
      "count": 13,
      "type": "VEC3"
    },
    {
      "bufferView": 121,
      "componentType": 5126,
      "count": 13,
      "type": "VEC2"
    },
    {
      "bufferView": 122,
      "componentType": 5126,
      "count": 24,
      "max": [
        0.3376801908016205,
        0.3376801609992981,
        -0.04165855422616005
      ],
      "min": [
        -0.3376801908016205,
        -0.3376801908016205,
        -0.041659142822027206
      ],
      "type": "VEC3"
    },
    {
      "bufferView": 123,
      "componentType": 5126,
      "count": 24,
      "type": "VEC3"
    },
    {
      "bufferView": 124,
      "componentType": 5126,
      "count": 24,
      "type": "VEC2"
    },
    {
      "bufferView": 125,
      "componentType": 5123,
      "count": 66,
      "type": "SCALAR"
    },
    {
      "bufferView": 126,
      "componentType": 5126,
      "count": 2728,
      "max": [
        11.808540344238281,
        0.413433700799942,
        3.630677269939042e-07
      ],
      "min": [
        -2.754915952682495,
        -5.584346771240234,
        -12.497952461242676
      ],
      "type": "VEC3"
    },
    {
      "bufferView": 127,
      "componentType": 5126,
      "count": 2728,
      "type": "VEC3"
    },
    {
      "bufferView": 128,
      "componentType": 5126,
      "count": 2728,
      "type": "VEC2"
    },
    {
      "bufferView": 129,
      "componentType": 5123,
      "count": 4494,
      "type": "SCALAR"
    },
    {
      "bufferView": 130,
      "componentType": 5126,
      "count": 1530,
      "max": [
        8.30715560913086,
        0.3613937497138977,
        1.0799528360366821
      ],
      "min": [
        -0.5503953695297241,
        -4.872123718261719,
        -0.5790964961051941
      ],
      "type": "VEC3"
    },
    {
      "bufferView": 131,
      "componentType": 5126,
      "count": 1530,
      "type": "VEC3"
    },
    {
      "bufferView": 132,
      "componentType": 5126,
      "count": 1530,
      "type": "VEC2"
    },
    {
      "bufferView": 133,
      "componentType": 5123,
      "count": 2400,
      "type": "SCALAR"
    },
    {
      "bufferView": 134,
      "componentType": 5126,
      "count": 392,
      "max": [
        8.120800018310547,
        0.19515003263950348,
        1.4980679750442505
      ],
      "min": [
        -0.5204899907112122,
        -0.04262262582778931,
        -1.4199758768081665
      ],
      "type": "VEC3"
    },
    {
      "bufferView": 135,
      "componentType": 5126,
      "count": 392,
      "type": "VEC3"
    },
    {
      "bufferView": 136,
      "componentType": 5126,
      "count": 392,
      "type": "VEC2"
    },
    {
      "bufferView": 137,
      "componentType": 5123,
      "count": 624,
      "type": "SCALAR"
    },
    {
      "bufferView": 138,
      "componentType": 5126,
      "count": 304,
      "max": [
        0.12558263540267944,
        5.014625072479248,
        14.525854110717773
      ],
      "min": [
        -1.5529706478118896,
        -7.935386657714844,
        -0.09221715480089188
      ],
      "type": "VEC3"
    },
    {
      "bufferView": 139,
      "componentType": 5126,
      "count": 304,
      "type": "VEC3"
    },
    {
      "bufferView": 140,
      "componentType": 5126,
      "count": 304,
      "type": "VEC2"
    },
    {
      "bufferView": 141,
      "componentType": 5123,
      "count": 456,
      "type": "SCALAR"
    }
  ],
  "bufferViews": [
    {
      "buffer": 0,
      "byteLength": 12288,
      "byteOffset": 0,
      "target": 34962
    },
    {
      "buffer": 0,
      "byteLength": 12288,
      "byteOffset": 12288,
      "target": 34962
    },
    {
      "buffer": 0,
      "byteLength": 8192,
      "byteOffset": 24576,
      "target": 34962
    },
    {
      "buffer": 0,
      "byteLength": 3840,
      "byteOffset": 32768,
      "target": 34963
    },
    {
      "buffer": 0,
      "byteLength": 1488,
      "byteOffset": 36608,
      "target": 34962
    },
    {
      "buffer": 0,
      "byteLength": 1488,
      "byteOffset": 38096,
      "target": 34962
    },
    {
      "buffer": 0,
      "byteLength": 992,
      "byteOffset": 39584,
      "target": 34962
    },
    {
      "buffer": 0,
      "byteLength": 576,
      "byteOffset": 40576,
      "target": 34963
    },
    {
      "buffer": 0,
      "byteLength": 1056,
      "byteOffset": 41152,
      "target": 34962
    },
    {
      "buffer": 0,
      "byteLength": 1056,
      "byteOffset": 42208,
      "target": 34962
    },
    {
      "buffer": 0,
      "byteLength": 704,
      "byteOffset": 43264,
      "target": 34962
    },
    {
      "buffer": 0,
      "byteLength": 300,
      "byteOffset": 43968,
      "target": 34963
    },
    {
      "buffer": 0,
      "byteLength": 1536,
      "byteOffset": 44268,
      "target": 34962
    },
    {
      "buffer": 0,
      "byteLength": 1536,
      "byteOffset": 45804,
      "target": 34962
    },
    {
      "buffer": 0,
      "byteLength": 1024,
      "byteOffset": 47340,
      "target": 34962
    },
    {
      "buffer": 0,
      "byteLength": 384,
      "byteOffset": 48364,
      "target": 34963
    },
    {
      "buffer": 0,
      "byteLength": 480,
      "byteOffset": 48748,
      "target": 34962
    },
    {
      "buffer": 0,
      "byteLength": 480,
      "byteOffset": 49228,
      "target": 34962
    },
    {
      "buffer": 0,
      "byteLength": 320,
      "byteOffset": 49708,
      "target": 34962
    },
    {
      "buffer": 0,
      "byteLength": 120,
      "byteOffset": 50028,
      "target": 34963
    },
    {
      "buffer": 0,
      "byteLength": 2784,
      "byteOffset": 50148,
      "target": 34962
    },
    {
      "buffer": 0,
      "byteLength": 2784,
      "byteOffset": 52932,
      "target": 34962
    },
    {
      "buffer": 0,
      "byteLength": 1856,
      "byteOffset": 55716,
      "target": 34962
    },
    {
      "buffer": 0,
      "byteLength": 696,
      "byteOffset": 57572,
      "target": 34963
    },
    {
      "buffer": 0,
      "byteLength": 696,
      "byteOffset": 58268,
      "target": 34962
    },
    {
      "buffer": 0,
      "byteLength": 696,
      "byteOffset": 58964,
      "target": 34962
    },
    {
      "buffer": 0,
      "byteLength": 464,
      "byteOffset": 59660,
      "target": 34962
    },
    {
      "buffer": 0,
      "byteLength": 192,
      "byteOffset": 60124,
      "target": 34963
    },
    {
      "buffer": 0,
      "byteLength": 3744,
      "byteOffset": 60316,
      "target": 34962
    },
    {
      "buffer": 0,
      "byteLength": 3744,
      "byteOffset": 64060,
      "target": 34962
    },
    {
      "buffer": 0,
      "byteLength": 2496,
      "byteOffset": 67804,
      "target": 34962
    },
    {
      "buffer": 0,
      "byteLength": 936,
      "byteOffset": 70300,
      "target": 34963
    },
    {
      "buffer": 0,
      "byteLength": 7080,
      "byteOffset": 71236,
      "target": 34962
    },
    {
      "buffer": 0,
      "byteLength": 7080,
      "byteOffset": 78316,
      "target": 34962
    },
    {
      "buffer": 0,
      "byteLength": 4720,
      "byteOffset": 85396,
      "target": 34962
    },
    {
      "buffer": 0,
      "byteLength": 3300,
      "byteOffset": 90116,
      "target": 34963
    },
    {
      "buffer": 0,
      "byteLength": 2208,
      "byteOffset": 93416,
      "target": 34962
    },
    {
      "buffer": 0,
      "byteLength": 2208,
      "byteOffset": 95624,
      "target": 34962
    },
    {
      "buffer": 0,
      "byteLength": 1472,
      "byteOffset": 97832,
      "target": 34962
    },
    {
      "buffer": 0,
      "byteLength": 648,
      "byteOffset": 99304,
      "target": 34963
    },
    {
      "buffer": 0,
      "byteLength": 156,
      "byteOffset": 99952,
      "target": 34962
    },
    {
      "buffer": 0,
      "byteLength": 156,
      "byteOffset": 100108,
      "target": 34962
    },
    {
      "buffer": 0,
      "byteLength": 104,
      "byteOffset": 100264,
      "target": 34962
    },
    {
      "buffer": 0,
      "byteLength": 66,
      "byteOffset": 100368,
      "target": 34963
    },
    {
      "buffer": 0,
      "byteLength": 96,
      "byteOffset": 100436,
      "target": 34962
    },
    {
      "buffer": 0,
      "byteLength": 96,
      "byteOffset": 100532,
      "target": 34962
    },
    {
      "buffer": 0,
      "byteLength": 64,
      "byteOffset": 100628,
      "target": 34962
    },
    {
      "buffer": 0,
      "byteLength": 24,
      "byteOffset": 100692,
      "target": 34963
    },
    {
      "buffer": 0,
      "byteLength": 96,
      "byteOffset": 100716,
      "target": 34962
    },
    {
      "buffer": 0,
      "byteLength": 96,
      "byteOffset": 100812,
      "target": 34962
    },
    {
      "buffer": 0,
      "byteLength": 64,
      "byteOffset": 100908,
      "target": 34962
    },
    {
      "buffer": 0,
      "byteLength": 96,
      "byteOffset": 100972,
      "target": 34962
    },
    {
      "buffer": 0,
      "byteLength": 96,
      "byteOffset": 101068,
      "target": 34962
    },
    {
      "buffer": 0,
      "byteLength": 64,
      "byteOffset": 101164,
      "target": 34962
    },
    {
      "buffer": 0,
      "byteLength": 17304,
      "byteOffset": 101228,
      "target": 34962
    },
    {
      "buffer": 0,
      "byteLength": 17304,
      "byteOffset": 118532,
      "target": 34962
    },
    {
      "buffer": 0,
      "byteLength": 11536,
      "byteOffset": 135836,
      "target": 34962
    },
    {
      "buffer": 0,
      "byteLength": 4500,
      "byteOffset": 147372,
      "target": 34963
    },
    {
      "buffer": 0,
      "byteLength": 96,
      "byteOffset": 151872,
      "target": 34962
    },
    {
      "buffer": 0,
      "byteLength": 96,
      "byteOffset": 151968,
      "target": 34962
    },
    {
      "buffer": 0,
      "byteLength": 64,
      "byteOffset": 152064,
      "target": 34962
    },
    {
      "buffer": 0,
      "byteLength": 156,
      "byteOffset": 152128,
      "target": 34962
    },
    {
      "buffer": 0,
      "byteLength": 156,
      "byteOffset": 152284,
      "target": 34962
    },
    {
      "buffer": 0,
      "byteLength": 104,
      "byteOffset": 152440,
      "target": 34962
    },
    {
      "buffer": 0,
      "byteLength": 720,
      "byteOffset": 152544,
      "target": 34962
    },
    {
      "buffer": 0,
      "byteLength": 720,
      "byteOffset": 153264,
      "target": 34962
    },
    {
      "buffer": 0,
      "byteLength": 480,
      "byteOffset": 153984,
      "target": 34962
    },
    {
      "buffer": 0,
      "byteLength": 180,
      "byteOffset": 154464,
      "target": 34963
    },
    {
      "buffer": 0,
      "byteLength": 3156,
      "byteOffset": 154644,
      "target": 34962
    },
    {
      "buffer": 0,
      "byteLength": 3156,
      "byteOffset": 157800,
      "target": 34962
    },
    {
      "buffer": 0,
      "byteLength": 2104,
      "byteOffset": 160956,
      "target": 34962
    },
    {
      "buffer": 0,
      "byteLength": 2196,
      "byteOffset": 163060,
      "target": 34963
    },
    {
      "buffer": 0,
      "byteLength": 48,
      "byteOffset": 165256,
      "target": 34962
    },
    {
      "buffer": 0,
      "byteLength": 48,
      "byteOffset": 165304,
      "target": 34962
    },
    {
      "buffer": 0,
      "byteLength": 32,
      "byteOffset": 165352,
      "target": 34962
    },
    {
      "buffer": 0,
      "byteLength": 12,
      "byteOffset": 165384,
      "target": 34963
    },
    {
      "buffer": 0,
      "byteLength": 3156,
      "byteOffset": 165396,
      "target": 34962
    },
    {
      "buffer": 0,
      "byteLength": 3156,
      "byteOffset": 168552,
      "target": 34962
    },
    {
      "buffer": 0,
      "byteLength": 2104,
      "byteOffset": 171708,
      "target": 34962
    },
    {
      "buffer": 0,
      "byteLength": 48,
      "byteOffset": 173812,
      "target": 34962
    },
    {
      "buffer": 0,
      "byteLength": 48,
      "byteOffset": 173860,
      "target": 34962
    },
    {
      "buffer": 0,
      "byteLength": 32,
      "byteOffset": 173908,
      "target": 34962
    },
    {
      "buffer": 0,
      "byteLength": 3156,
      "byteOffset": 173940,
      "target": 34962
    },
    {
      "buffer": 0,
      "byteLength": 3156,
      "byteOffset": 177096,
      "target": 34962
    },
    {
      "buffer": 0,
      "byteLength": 2104,
      "byteOffset": 180252,
      "target": 34962
    },
    {
      "buffer": 0,
      "byteLength": 48,
      "byteOffset": 182356,
      "target": 34962
    },
    {
      "buffer": 0,
      "byteLength": 48,
      "byteOffset": 182404,
      "target": 34962
    },
    {
      "buffer": 0,
      "byteLength": 32,
      "byteOffset": 182452,
      "target": 34962
    },
    {
      "buffer": 0,
      "byteLength": 96,
      "byteOffset": 182484,
      "target": 34962
    },
    {
      "buffer": 0,
      "byteLength": 96,
      "byteOffset": 182580,
      "target": 34962
    },
    {
      "buffer": 0,
      "byteLength": 64,
      "byteOffset": 182676,
      "target": 34962
    },
    {
      "buffer": 0,
      "byteLength": 192,
      "byteOffset": 182740,
      "target": 34962
    },
    {
      "buffer": 0,
      "byteLength": 192,
      "byteOffset": 182932,
      "target": 34962
    },
    {
      "buffer": 0,
      "byteLength": 128,
      "byteOffset": 183124,
      "target": 34962
    },
    {
      "buffer": 0,
      "byteLength": 60,
      "byteOffset": 183252,
      "target": 34963
    },
    {
      "buffer": 0,
      "byteLength": 1104,
      "byteOffset": 183312,
      "target": 34962
    },
    {
      "buffer": 0,
      "byteLength": 1104,
      "byteOffset": 184416,
      "target": 34962
    },
    {
      "buffer": 0,
      "byteLength": 736,
      "byteOffset": 185520,
      "target": 34962
    },
    {
      "buffer": 0,
      "byteLength": 276,
      "byteOffset": 186256,
      "target": 34963
    },
    {
      "buffer": 0,
      "byteLength": 11472,
      "byteOffset": 186532,
      "target": 34962
    },
    {
      "buffer": 0,
      "byteLength": 11472,
      "byteOffset": 198004,
      "target": 34962
    },
    {
      "buffer": 0,
      "byteLength": 7648,
      "byteOffset": 209476,
      "target": 34962
    },
    {
      "buffer": 0,
      "byteLength": 2964,
      "byteOffset": 217124,
      "target": 34963
    },
    {
      "buffer": 0,
      "byteLength": 3960,
      "byteOffset": 220088,
      "target": 34962
    },
    {
      "buffer": 0,
      "byteLength": 3960,
      "byteOffset": 224048,
      "target": 34962
    },
    {
      "buffer": 0,
      "byteLength": 2640,
      "byteOffset": 228008,
      "target": 34962
    },
    {
      "buffer": 0,
      "byteLength": 1500,
      "byteOffset": 230648,
      "target": 34963
    },
    {
      "buffer": 0,
      "byteLength": 4608,
      "byteOffset": 232148,
      "target": 34962
    },
    {
      "buffer": 0,
      "byteLength": 4608,
      "byteOffset": 236756,
      "target": 34962
    },
    {
      "buffer": 0,
      "byteLength": 3072,
      "byteOffset": 241364,
      "target": 34962
    },
    {
      "buffer": 0,
      "byteLength": 1152,
      "byteOffset": 244436,
      "target": 34963
    },
    {
      "buffer": 0,
      "byteLength": 1440,
      "byteOffset": 245588,
      "target": 34962
    },
    {
      "buffer": 0,
      "byteLength": 1440,
      "byteOffset": 247028,
      "target": 34962
    },
    {
      "buffer": 0,
      "byteLength": 960,
      "byteOffset": 248468,
      "target": 34962
    },
    {
      "buffer": 0,
      "byteLength": 360,
      "byteOffset": 249428,
      "target": 34963
    },
    {
      "buffer": 0,
      "byteLength": 2112,
      "byteOffset": 249788,
      "target": 34962
    },
    {
      "buffer": 0,
      "byteLength": 2112,
      "byteOffset": 251900,
      "target": 34962
    },
    {
      "buffer": 0,
      "byteLength": 1408,
      "byteOffset": 254012,
      "target": 34962
    },
    {
      "buffer": 0,
      "byteLength": 528,
      "byteOffset": 255420,
      "target": 34963
    },
    {
      "buffer": 0,
      "byteLength": 156,
      "byteOffset": 255948,
      "target": 34962
    },
    {
      "buffer": 0,
      "byteLength": 156,
      "byteOffset": 256104,
      "target": 34962
    },
    {
      "buffer": 0,
      "byteLength": 104,
      "byteOffset": 256260,
      "target": 34962
    },
    {
      "buffer": 0,
      "byteLength": 288,
      "byteOffset": 256364,
      "target": 34962
    },
    {
      "buffer": 0,
      "byteLength": 288,
      "byteOffset": 256652,
      "target": 34962
    },
    {
      "buffer": 0,
      "byteLength": 192,
      "byteOffset": 256940,
      "target": 34962
    },
    {
      "buffer": 0,
      "byteLength": 132,
      "byteOffset": 257132,
      "target": 34963
    },
    {
      "buffer": 0,
      "byteLength": 32736,
      "byteOffset": 257264,
      "target": 34962
    },
    {
      "buffer": 0,
      "byteLength": 32736,
      "byteOffset": 290000,
      "target": 34962
    },
    {
      "buffer": 0,
      "byteLength": 21824,
      "byteOffset": 322736,
      "target": 34962
    },
    {
      "buffer": 0,
      "byteLength": 8988,
      "byteOffset": 344560,
      "target": 34963
    },
    {
      "buffer": 0,
      "byteLength": 18360,
      "byteOffset": 353548,
      "target": 34962
    },
    {
      "buffer": 0,
      "byteLength": 18360,
      "byteOffset": 371908,
      "target": 34962
    },
    {
      "buffer": 0,
      "byteLength": 12240,
      "byteOffset": 390268,
      "target": 34962
    },
    {
      "buffer": 0,
      "byteLength": 4800,
      "byteOffset": 402508,
      "target": 34963
    },
    {
      "buffer": 0,
      "byteLength": 4704,
      "byteOffset": 407308,
      "target": 34962
    },
    {
      "buffer": 0,
      "byteLength": 4704,
      "byteOffset": 412012,
      "target": 34962
    },
    {
      "buffer": 0,
      "byteLength": 3136,
      "byteOffset": 416716,
      "target": 34962
    },
    {
      "buffer": 0,
      "byteLength": 1248,
      "byteOffset": 419852,
      "target": 34963
    },
    {
      "buffer": 0,
      "byteLength": 3648,
      "byteOffset": 421100,
      "target": 34962
    },
    {
      "buffer": 0,
      "byteLength": 3648,
      "byteOffset": 424748,
      "target": 34962
    },
    {
      "buffer": 0,
      "byteLength": 2432,
      "byteOffset": 428396,
      "target": 34962
    },
    {
      "buffer": 0,
      "byteLength": 912,
      "byteOffset": 430828,
      "target": 34963
    }
  ],
  "samplers": [
    {
      "magFilter": 9729,
      "minFilter": 9987
    }
  ],
  "buffers": [
    {
      "byteLength": 431740,
      "uri": "model.bin"
    }
  ]
}