{
  "asset": {
    "generator": "Khronos glTF Blender I/O v4.5.51",
    "version": "2.0"
  },
  "scene": 0,
  "scenes": [
    {
      "name": "Scene",
      "nodes": [
        0,
        1,
        2,
        3,
        4,
        5,
        6,
        7,
        8,
        9,
        10,
        11,
        12,
        13,
        14,
        15,
        16,
        17,
        18,
        19,
        20,
        21,
        22,
        23,
        24,
        25,
        26,
        27,
        28,
        29,
        30,
        31,
        32,
        33,
        34,
        35,
        36,
        37,
        38,
        39,
        40,
        41,
        42,
        43,
        44,
        45,
        46,
        47,
        48,
        49,
        50,
        51,
        52,
        53
      ]
    }
  ],
  "nodes": [
    {
      "mesh": 0,
      "name": "Sign",
      "translation": [
        10.04598331451416,
        1.483065128326416,
        1.7602546215057373
      ]
    },
    {
      "mesh": 1,
      "name": "BackBalconyLogEdges",
      "rotation": [
        0,
        1,
        0,
        7.589671326968528e-07
      ],
      "translation": [
        5.573083877563477,
        1.6846988201141357,
        -6.944311141967773
      ]
    },
    {
      "mesh": 2,
      "name": "RoofFrameLogEdges",
      "translation": [
        -2.688809633255005,
        2.8055951595306396,
        -4.5
      ]
    },
    {
      "mesh": 3,
      "name": "BalconyLogEdges",
      "translation": [
        0.6311628818511963,
        3.622124195098877,
        0.6751337647438049
      ]
    },
    {
      "mesh": 4,
      "name": "Level3",
      "translation": [
        -2.700000047683716,
        2.799999952316284,
        -4.5
      ]
    },
    {
      "mesh": 5,
      "name": "Roof",
      "translation": [
        -2.700000047683716,
        2.799999952316284,
        -4.5
      ]
    },
    {
      "mesh": 6,
      "name": "ChimneyPipes",
      "rotation": [
        0,
        1,
        0,
        9.973858823286719e-07
      ],
      "scale": [
        0.5854621529579163,
        0.5854621529579163,
        0.5854621529579163
      ],
      "translation": [
        2.6589999198913574,
        5.352738380432129,
        -5.499031066894531
      ]
    },
    {
      "mesh": 7,
      "name": "Chimney",
      "rotation": [
        0,
        1,
        0,
        9.973858823286719e-07
      ],
      "scale": [
        0.5854621529579163,
        0.5854621529579163,
        0.5854621529579163
      ],
      "translation": [
        2.666398525238037,
        4.284175872802734,
        -5.495096683502197
      ]
    },
    {
      "mesh": 8,
      "name": "WindowsLevel3Left3",
      "rotation": [
        0,
        -0.7071070671081543,
        0,
        0.7071064710617065
      ],
      "translation": [
        -5.335633277893066,
        5.089469909667969,
        -0.21829968690872192
      ]
    },
    {
      "mesh": 9,
      "name": "WindowsLevel2Left3",
      "rotation": [
        0,
        -0.7071070671081543,
        0,
        0.7071064710617065
      ],
      "scale": [
        1.128915786743164,
        1.1289159059524536,
        1.128915786743164
      ],
      "translation": [
        -5.439201354980469,
        3.024754047393799,
        -5.032648086547852
      ]
    },
    {
      "mesh": 10,
      "name": "WindowsLevel2Left2",
      "rotation": [
        0,
        -0.7071070671081543,
        0,
        0.7071064710617065
      ],
      "scale": [
        1.128915786743164,
        1.1289159059524536,
        1.128915786743164
      ],
      "translation": [
        -5.439201354980469,
        3.024754047393799,
        -7.400409698486328
      ]
    },
    {
      "mesh": 11,
      "name": "WindowsLevel2Left1",
      "rotation": [
        0,
        -0.7071070671081543,
        0,
        0.7071064710617065
      ],
      "scale": [
        1.128915786743164,
        1.1289159059524536,
        1.128915786743164
      ],
      "translation": [
        -5.439201354980469,
        3.0169928073883057,
        -9.79023551940918
      ]
    },
    {
      "mesh": 12,
      "name": "WindowsLevel1Left1",
      "rotation": [
        0,
        -0.7071070671081543,
        0,
        0.7071064710617065
      ],
      "scale": [
        1.128915786743164,
        1.1289159059524536,
        1.128915786743164
      ],
      "translation": [
        -5.291751384735107,
        0.3859615623950958,
        -9.898602485656738
      ]
    },
    {
      "mesh": 13,
      "name": "WindowsLevel1Left2",
      "rotation": [
        0,
        -0.7071070671081543,
        0,
        0.7071064710617065
      ],
      "scale": [
        1.128915786743164,
        1.1289159059524536,
        1.128915786743164
      ],
      "translation": [
        -5.291751384735107,
        0.3859615623950958,
        -6.29771614074707
      ]
    },
    {
      "mesh": 14,
      "name": "WindowsLevel1Left3",
      "rotation": [
        0,
        -0.7071070671081543,
        0,
        0.7071064710617065
      ],
      "scale": [
        1.128915786743164,
        1.1289159059524536,
        1.128915786743164
      ],
      "translation": [
        -5.291751384735107,
        0.38736772537231445,
        -0.9112371206283569
      ]
    },
    {
      "mesh": 15,
      "name": "WindowsLevel2Front2",
      "scale": [
        1.1289159059524536,
        1.1289159059524536,
        1.1289159059524536
      ],
      "translation": [
        -1.5956075191497803,
        3.0317254066467285,
        1.7899689674377441
      ]
    },
    {
      "mesh": 16,
      "name": "WindowsLevel2Front1",
      "scale": [
        1.1289159059524536,
        1.1289159059524536,
        1.1289159059524536
      ],
      "translation": [
        -3.8098878860473633,
        3.0317254066467285,
        1.7899689674377441
      ]
    },
    {
      "mesh": 17,
      "name": "WindowsLevel2Right3",
      "rotation": [
        0,
        0.7071070671081543,
        0,
        0.7071064710617065
      ],
      "scale": [
        1.1289160251617432,
        1.1289159059524536,
        1.1289160251617432
      ],
      "translation": [
        9.057568550109863,
        3.0304458141326904,
        -7.404189109802246
      ]
    },
    {
      "mesh": 18,
      "name": "WindowsLevel2Right2",
      "rotation": [
        0,
        0.7071070671081543,
        0,
        0.7071064710617065
      ],
      "scale": [
        1.1289160251617432,
        1.1289159059524536,
        1.1289160251617432
      ],
      "translation": [
        9.057568550109863,
        3.0304458141326904,
        -3.876664876937866
      ]
    },
    {
      "mesh": 19,
      "name": "WindowsLevel2Right1",
      "rotation": [
        0,
        0.7071070671081543,
        0,
        0.7071064710617065
      ],
      "scale": [
        1.1289160251617432,
        1.1289159059524536,
        1.1289160251617432
      ],
      "translation": [
        9.057568550109863,
        3.0304458141326904,
        -1.3172627687454224
      ]
    },
    {
      "mesh": 20,
      "name": "WindowsLevel1Right1",
      "rotation": [
        0,
        0.7071070671081543,
        0,
        0.7071064710617065
      ],
      "scale": [
        1.1289160251617432,
        1.1289159059524536,
        1.1289160251617432
      ],
      "translation": [
        8.927498817443848,
        0.38750070333480835,
        -4.504276752471924
      ]
    },
    {
      "mesh": 21,
      "name": "Level1",
      "rotation": [
        0,
        0.7071070671081543,
        0,
        0.7071064710617065
      ],
      "translation": [
        10.799976348876953,
        0,
        1.7999992370605469
      ]
    },
    {
      "mesh": 22,
      "name": "WindowsLevel2Front4",
      "scale": [
        1.1289159059524536,
        1.1289159059524536,
        1.1289159059524536
      ],
      "translation": [
        3.705735206604004,
        3.0384984016418457,
        0.030877381563186646
      ]
    },
    {
      "mesh": 23,
      "name": "WindowsLevel2Front3",
      "scale": [
        1.1289159059524536,
        1.1289159059524536,
        1.1289159059524536
      ],
      "translation": [
        1.4086922407150269,
        3.0317254066467285,
        0.030636783689260483
      ]
    },
    {
      "mesh": 24,
      "name": "WindowsLevel3Left1",
      "rotation": [
        0,
        -0.7071070671081543,
        0,
        0.7071064710617065
      ],
      "translation": [
        -5.335633277893066,
        5.089469909667969,
        -9.33682918548584
      ]
    },
    {
      "mesh": 25,
      "name": "DoorSteps",
      "rotation": [
        0,
        0.7071070671081543,
        0,
        0.7071064710617065
      ],
      "translation": [
        -1.0045865774154663,
        -0.08449967950582504,
        -6.280313968658447
      ]
    },
    {
      "mesh": 26,
      "name": "DoorHandleBack",
      "rotation": [
        0,
        0.7071070671081543,
        0,
        0.7071064710617065
      ],
      "translation": [
        -0.9265164136886597,
        -0.021845905110239983,
        -6.359968662261963
      ]
    },
    {
      "mesh": 27,
      "name": "DoorBack"
    },
    {
      "mesh": 28,
      "name": "DoorHandleBalcony",
      "translation": [
        6.1528754234313965,
        2.717942714691162,
        -0.7298551201820374
      ]
    },
    {
      "mesh": 29,
      "name": "DoorBalcony"
    },
    {
      "mesh": 30,
      "name": "DoorHandleKitchen",
      "rotation": [
        0,
        0.7071070671081543,
        0,
        0.7071064710617065
      ],
      "translation": [
        -0.9322280883789062,
        -0.02184641733765602,
        0.8067929148674011
      ]
    },
    {
      "mesh": 31,
      "name": "DoorKitchen"
    },
    {
      "mesh": 32,
      "name": "WindowsLevel1Front1",
      "scale": [
        1.1289159059524536,
        1.1289159059524536,
        1.1289159059524536
      ],
      "translation": [
        -4.49572229385376,
        0.3875006437301636,
        1.7233623266220093
      ]
    },
    {
      "mesh": 33,
      "name": "WindowsLevel1Front2",
      "scale": [
        1.1289159059524536,
        1.1289159059524536,
        1.1289159059524536
      ],
      "translation": [
        -0.8957219123840332,
        0.3875006437301636,
        1.7233623266220093
      ]
    },
    {
      "mesh": 34,
      "name": "WindowsLevel1Front6",
      "scale": [
        1.1289159059524536,
        1.1289159059524536,
        1.1289159059524536
      ],
      "translation": [
        6.304278373718262,
        0.3875006437301636,
        -0.07455553114414215
      ]
    },
    {
      "mesh": 35,
      "name": "WindowsLevel1Front5",
      "scale": [
        1.1289159059524536,
        1.1289159059524536,
        1.1289159059524536
      ],
      "translation": [
        4.504278182983398,
        0.3875006437301636,
        -0.07455553114414215
      ]
    },
    {
      "mesh": 36,
      "name": "WindowsLevel1Front4",
      "scale": [
        1.1289159059524536,
        1.1289159059524536,
        1.1289159059524536
      ],
      "translation": [
        2.704277992248535,
        0.3875006437301636,
        -0.07455553114414215
      ]
    },
    {
      "mesh": 37,
      "name": "Entrance"
    },
    {
      "mesh": 38,
      "name": "RoofWood",
      "translation": [
        -2.700000047683716,
        2.8161935806274414,
        -4.5
      ]
    },
    {
      "mesh": 39,
      "name": "RoofFrame",
      "translation": [
        -2.688809633255005,
        2.8055951595306396,
        -4.5
      ]
    },
    {
      "mesh": 40,
      "name": "Level2",
      "translation": [
        -2.700000047683716,
        2.799999952316284,
        -4.5
      ]
    },
    {
      "mesh": 41,
      "name": "Foundation"
    },
    {
      "mesh": 42,
      "name": "Level2Frame",
      "translation": [
        10.050000190734863,
        1.399999976158142,
        -0.8999999761581421
      ]
    },
    {
      "mesh": 43,
      "name": "WindowsLevel1Front3",
      "scale": [
        1.1289159059524536,
        1.1289159059524536,
        1.1289159059524536
      ],
      "translation": [
        0.9042776823043823,
        0.3875006437301636,
        -0.07455553114414215
      ]
    },
    {
      "mesh": 44,
      "name": "DoorEntrance"
    },
    {
      "mesh": 45,
      "name": "DoorFrames",
      "translation": [
        10.330543518066406,
        -0.08450019359588623,
        -0.8129944801330566
      ]
    },
    {
      "mesh": 46,
      "name": "DoorHandleEntrance",
      "translation": [
        10.410198211669922,
        -0.021846413612365723,
        -0.7349245548248291
      ]
    },
    {
      "mesh": 47,
      "name": "WindowsLevel3Left2",
      "rotation": [
        0,
        -0.7071070671081543,
        0,
        0.7071064710617065
      ],
      "translation": [
        -5.335633277893066,
        5.089469909667969,
        -7.0403361320495605
      ]
    },
    {
      "mesh": 48,
      "name": "WindowsLevel3Front1",
      "translation": [
        -2.717628240585327,
        5.405849933624268,
        2.0348923206329346
      ]
    },
    {
      "mesh": 49,
      "name": "WindowFrames",
      "translation": [
        -2.717628240585327,
        5.405849933624268,
        2.0348923206329346
      ]
    },
    {
      "mesh": 50,
      "name": "Balcony",
      "translation": [
        0.6311628818511963,
        3.622124195098877,
        0.6751337647438049
      ]
    },
    {
      "mesh": 51,
      "name": "BackBalcony",
      "rotation": [
        0,
        1,
        0,
        7.589671326968528e-07
      ],
      "translation": [
        5.573083877563477,
        1.6846988201141357,
        -6.944311141967773
      ]
    },
    {
      "mesh": 52,
      "name": "Level3Frames",
      "rotation": [
        0.5000004172325134,
        -0.4999999403953552,
        -0.4999995827674866,
        0.5000000596046448
      ],
      "translation": [
        9.079602241516113,
        4.051145553588867,
        -3.047302722930908
      ]
    },
    {
      "mesh": 53,
      "name": "Facade_WindowLeads"
    }
  ],
  "materials": [
    {
      "name": "RustedMetal_review",
      "pbrMetallicRoughness": {
        "baseColorTexture": {
          "index": 0
        },
        "metallicFactor": 0,
        "roughnessFactor": 0.75
      }
    },
    {
      "name": "Sign_review",
      "pbrMetallicRoughness": {
        "baseColorTexture": {
          "index": 1
        },
        "metallicFactor": 0,
        "roughnessFactor": 0.8799999952316284
      }
    },
    {
      "name": "LogEdgeWeathered_review",
      "pbrMetallicRoughness": {
        "baseColorTexture": {
          "index": 2
        },
        "metallicFactor": 0,
        "roughnessFactor": 0.8799999952316284
      }
    },
    {
      "name": "Wood_review",
      "pbrMetallicRoughness": {
        "baseColorTexture": {
          "index": 3
        },
        "metallicFactor": 0,
        "roughnessFactor": 0.8799999952316284
      }
    },
    {
      "name": "RoofTiles_review",
      "pbrMetallicRoughness": {
        "baseColorTexture": {
          "index": 4
        },
        "metallicFactor": 0,
        "roughnessFactor": 0.8799999952316284
      }
    },
    {
      "name": "Brick_review",
      "pbrMetallicRoughness": {
        "baseColorTexture": {
          "index": 5
        },
        "metallicFactor": 0,
        "roughnessFactor": 0.8799999952316284
      }
    },
    {
      "name": "Facade_Window_Glass",
      "pbrMetallicRoughness": {
        "baseColorFactor": [
          0.02800000086426735,
          0.04399999976158142,
          0.03799999877810478,
          1
        ],
        "metallicFactor": 0,
        "roughnessFactor": 0.2800000011920929
      }
    },
    {
      "name": "Facade_Stone_PBR",
      "normalTexture": {
        "index": 6,
        "scale": 0.6499999761581421
      },
      "pbrMetallicRoughness": {
        "baseColorTexture": {
          "index": 7
        },
        "metallicFactor": 0,
        "roughnessFactor": 1,
        "metallicRoughnessTexture": {
          "index": 10
        }
      },
      "occlusionTexture": {
        "index": 10,
        "strength": 0.8
      }
    },
    {
      "name": "DarkStone_review",
      "pbrMetallicRoughness": {
        "baseColorTexture": {
          "index": 8
        },
        "metallicFactor": 0,
        "roughnessFactor": 0.8799999952316284
      }
    },
    {
      "name": "DoorType1_2_review",
      "pbrMetallicRoughness": {
        "baseColorTexture": {
          "index": 9
        },
        "metallicFactor": 0,
        "roughnessFactor": 0.8799999952316284
      }
    },
    {
      "name": "Facade_Window_Leads",
      "pbrMetallicRoughness": {
        "baseColorFactor": [
          0.04500000178813934,
          0.03999999910593033,
          0.03400000184774399,
          1
        ],
        "metallicFactor": 0.3499999940395355,
        "roughnessFactor": 0.7200000286102295
      }
    }
  ],
  "meshes": [
    {
      "name": "Cylinder.001",
      "primitives": [
        {
          "attributes": {
            "POSITION": 0,
            "NORMAL": 1,
            "TEXCOORD_0": 2
          },
          "indices": 3,
          "material": 0
        },
        {
          "attributes": {
            "POSITION": 4,
            "NORMAL": 5,
            "TEXCOORD_0": 6
          },
          "indices": 7,
          "material": 1
        },
        {
          "attributes": {
            "POSITION": 8,
            "NORMAL": 9,
            "TEXCOORD_0": 10
          },
          "indices": 11,
          "material": 2
        }
      ]
    },
    {
      "name": "Cube.002",
      "primitives": [
        {
          "attributes": {
            "POSITION": 12,
            "NORMAL": 13,
            "TEXCOORD_0": 14
          },
          "indices": 15,
          "material": 2
        }
      ]
    },
    {
      "name": "Cube.003",
      "primitives": [
        {
          "attributes": {
            "POSITION": 16,
            "NORMAL": 17,
            "TEXCOORD_0": 18
          },
          "indices": 19,
          "material": 2
        }
      ]
    },
    {
      "name": "Cube.004",
      "primitives": [
        {
          "attributes": {
            "POSITION": 20,
            "NORMAL": 21,
            "TEXCOORD_0": 22
          },
          "indices": 23,
          "material": 2
        }
      ]
    },
    {
      "name": "Cube.005",
      "primitives": [
        {
          "attributes": {
            "POSITION": 24,
            "NORMAL": 25,
            "TEXCOORD_0": 26
          },
          "indices": 27,
          "material": 3
        }
      ]
    },
    {
      "name": "Cube.006",
      "primitives": [
        {
          "attributes": {
            "POSITION": 28,
            "NORMAL": 29,
            "TEXCOORD_0": 30
          },
          "indices": 31,
          "material": 4
        }
      ]
    },
    {
      "name": "Cube.008",
      "primitives": [
        {
          "attributes": {
            "POSITION": 32,
            "NORMAL": 33,
            "TEXCOORD_0": 34
          },
          "indices": 35,
          "material": 0
        }
      ]
    },
    {
      "name": "Cube.009",
      "primitives": [
        {
          "attributes": {
            "POSITION": 36,
            "NORMAL": 37,
            "TEXCOORD_0": 38
          },
          "indices": 39,
          "material": 5
        }
      ]
    },
    {
      "name": "Circle.003",
      "primitives": [
        {
          "attributes": {
            "POSITION": 40,
            "NORMAL": 41,
            "TEXCOORD_0": 42
          },
          "indices": 43,
          "material": 6
        }
      ]
    },
    {
      "name": "Cube.010",
      "primitives": [
        {
          "attributes": {
            "POSITION": 44,
            "NORMAL": 45,
            "TEXCOORD_0": 46
          },
          "indices": 47,
          "material": 6
        }
      ]
    },
    {
      "name": "Cube.011",
      "primitives": [
        {
          "attributes": {
            "POSITION": 48,
            "NORMAL": 49,
            "TEXCOORD_0": 50
          },
          "indices": 47,
          "material": 6
        }
      ]
    },
    {
      "name": "Cube.014",
      "primitives": [
        {
          "attributes": {
            "POSITION": 51,
            "NORMAL": 52,
            "TEXCOORD_0": 53
          },
          "indices": 47,
          "material": 6
        }
      ]
    },
    {
      "name": "Cube.015",
      "primitives": [
        {
          "attributes": {
            "POSITION": 54,
            "NORMAL": 55,
            "TEXCOORD_0": 56
          },
          "indices": 47,
          "material": 6
        }
      ]
    },
    {
      "name": "Cube.016",
      "primitives": [
        {
          "attributes": {
            "POSITION": 57,
            "NORMAL": 58,
            "TEXCOORD_0": 59
          },
          "indices": 47,
          "material": 6
        }
      ]
    },
    {
      "name": "Cube.017",
      "primitives": [
        {
          "attributes": {
            "POSITION": 60,
            "NORMAL": 61,
            "TEXCOORD_0": 62
          },
          "indices": 47,
          "material": 6
        }
      ]
    },
    {
      "name": "Cube.018",
      "primitives": [
        {
          "attributes": {
            "POSITION": 63,
            "NORMAL": 64,
            "TEXCOORD_0": 65
          },
          "indices": 47,
          "material": 6
        }
      ]
    },
    {
      "name": "Cube.019",
      "primitives": [
        {
          "attributes": {
            "POSITION": 66,
            "NORMAL": 67,
            "TEXCOORD_0": 68
          },
          "indices": 47,
          "material": 6
        }
      ]
    },
    {
      "name": "Cube.020",
      "primitives": [
        {
          "attributes": {
            "POSITION": 69,
            "NORMAL": 70,
            "TEXCOORD_0": 71
          },
          "indices": 47,
          "material": 6
        }
      ]
    },
    {
      "name": "Cube.021",
      "primitives": [
        {
          "attributes": {
            "POSITION": 72,
            "NORMAL": 73,
            "TEXCOORD_0": 74
          },
          "indices": 47,
          "material": 6
        }
      ]
    },
    {
      "name": "Cube.022",
      "primitives": [
        {
          "attributes": {
            "POSITION": 75,
            "NORMAL": 76,
            "TEXCOORD_0": 77
          },
          "indices": 47,
          "material": 6
        }
      ]
    },
    {
      "name": "Cube.024",
      "primitives": [
        {
          "attributes": {
            "POSITION": 78,
            "NORMAL": 79,
            "TEXCOORD_0": 80
          },
          "indices": 47,
          "material": 6
        }
      ]
    },
    {
      "name": "Cube.025",
      "primitives": [
        {
          "attributes": {
            "POSITION": 81,
            "NORMAL": 82,
            "TEXCOORD_0": 83
          },
          "indices": 84,
          "material": 7
        }
      ]
    },
    {
      "name": "Cube.027",
      "primitives": [
        {
          "attributes": {
            "POSITION": 85,
            "NORMAL": 86,
            "TEXCOORD_0": 87
          },
          "indices": 47,
          "material": 6
        }
      ]
    },
    {
      "name": "Cube.030",
      "primitives": [
        {
          "attributes": {
            "POSITION": 88,
            "NORMAL": 89,
            "TEXCOORD_0": 90
          },
          "indices": 47,
          "material": 6
        }
      ]
    },
    {
      "name": "Circle.005",
      "primitives": [
        {
          "attributes": {
            "POSITION": 91,
            "NORMAL": 92,
            "TEXCOORD_0": 93
          },
          "indices": 43,
          "material": 6
        }
      ]
    },
    {
      "name": "Cube.031",
      "primitives": [
        {
          "attributes": {
            "POSITION": 94,
            "NORMAL": 95,
            "TEXCOORD_0": 96
          },
          "indices": 97,
          "material": 8
        }
      ]
    },
    {
      "name": "Cube.032",
      "primitives": [
        {
          "attributes": {
            "POSITION": 98,
            "NORMAL": 99,
            "TEXCOORD_0": 100
          },
          "indices": 101,
          "material": 0
        }
      ]
    },
    {
      "name": "Cube.033",
      "primitives": [
        {
          "attributes": {
            "POSITION": 102,
            "NORMAL": 103,
            "TEXCOORD_0": 104
          },
          "indices": 105,
          "material": 9
        }
      ]
    },
    {
      "name": "Cube.034",
      "primitives": [
        {
          "attributes": {
            "POSITION": 106,
            "NORMAL": 107,
            "TEXCOORD_0": 108
          },
          "indices": 101,
          "material": 0
        }
      ]
    },
    {
      "name": "Cube.035",
      "primitives": [
        {
          "attributes": {
            "POSITION": 109,
            "NORMAL": 110,
            "TEXCOORD_0": 111
          },
          "indices": 112,
          "material": 9
        }
      ]
    },
    {
      "name": "Cube.036",
      "primitives": [
        {
          "attributes": {
            "POSITION": 113,
            "NORMAL": 114,
            "TEXCOORD_0": 115
          },
          "indices": 101,
          "material": 0
        }
      ]
    },
    {
      "name": "Cube.037",
      "primitives": [
        {
          "attributes": {
            "POSITION": 116,
            "NORMAL": 117,
            "TEXCOORD_0": 118
          },
          "indices": 105,
          "material": 9
        }
      ]
    },
    {
      "name": "Cube.038",
      "primitives": [
        {
          "attributes": {
            "POSITION": 119,
            "NORMAL": 120,
            "TEXCOORD_0": 121
          },
          "indices": 47,
          "material": 6
        }
      ]
    },
    {
      "name": "Cube.039",
      "primitives": [
        {
          "attributes": {
            "POSITION": 122,
            "NORMAL": 123,
            "TEXCOORD_0": 124
          },
          "indices": 47,
          "material": 6
        }
      ]
    },
    {
      "name": "Cube.040",
      "primitives": [
        {
          "attributes": {
            "POSITION": 125,
            "NORMAL": 126,
            "TEXCOORD_0": 127
          },
          "indices": 47,
          "material": 6
        }
      ]
    },
    {
      "name": "Cube.041",
      "primitives": [
        {
          "attributes": {
            "POSITION": 128,
            "NORMAL": 129,
            "TEXCOORD_0": 130
          },
          "indices": 47,
          "material": 6
        }
      ]
    },
    {
      "name": "Cube.042",
      "primitives": [
        {
          "attributes": {
            "POSITION": 131,
            "NORMAL": 132,
            "TEXCOORD_0": 133
          },
          "indices": 47,
          "material": 6
        }
      ]
    },
    {
      "name": "Cube.043",
      "primitives": [
        {
          "attributes": {
            "POSITION": 134,
            "NORMAL": 135,
            "TEXCOORD_0": 136
          },
          "indices": 137,
          "material": 3
        }
      ]
    },
    {
      "name": "Cube.044",
      "primitives": [
        {
          "attributes": {
            "POSITION": 138,
            "NORMAL": 139,
            "TEXCOORD_0": 140
          },
          "indices": 141,
          "material": 3
        }
      ]
    },
    {
      "name": "Cube.045",
      "primitives": [
        {
          "attributes": {
            "POSITION": 142,
            "NORMAL": 143,
            "TEXCOORD_0": 144
          },
          "indices": 145,
          "material": 3
        }
      ]
    },
    {
      "name": "Cube.046",
      "primitives": [
        {
          "attributes": {
            "POSITION": 146,
            "NORMAL": 147,
            "TEXCOORD_0": 148
          },
          "indices": 149,
          "material": 7
        }
      ]
    },
    {
      "name": "Cube.047",
      "primitives": [
        {
          "attributes": {
            "POSITION": 150,
            "NORMAL": 151,
            "TEXCOORD_0": 152
          },
          "indices": 153,
          "material": 8
        }
      ]
    },
    {
      "name": "Cube.048",
      "primitives": [
        {
          "attributes": {
            "POSITION": 154,
            "NORMAL": 155,
            "TEXCOORD_0": 156
          },
          "indices": 157,
          "material": 8
        }
      ]
    },
    {
      "name": "Cube.049",
      "primitives": [
        {
          "attributes": {
            "POSITION": 158,
            "NORMAL": 159,
            "TEXCOORD_0": 160
          },
          "indices": 47,
          "material": 6
        }
      ]
    },
    {
      "name": "Cube.050",
      "primitives": [
        {
          "attributes": {
            "POSITION": 161,
            "NORMAL": 162,
            "TEXCOORD_0": 163
          },
          "indices": 112,
          "material": 9
        }
      ]
    },
    {
      "name": "Cube.051",
      "primitives": [
        {
          "attributes": {
            "POSITION": 164,
            "NORMAL": 165,
            "TEXCOORD_0": 166
          },
          "indices": 167,
          "material": 3
        }
      ]
    },
    {
      "name": "Cube.052",
      "primitives": [
        {
          "attributes": {
            "POSITION": 168,
            "NORMAL": 169,
            "TEXCOORD_0": 170
          },
          "indices": 101,
          "material": 0
        }
      ]
    },
    {
      "name": "Circle.007",
      "primitives": [
        {
          "attributes": {
            "POSITION": 171,
            "NORMAL": 172,
            "TEXCOORD_0": 173
          },
          "indices": 43,
          "material": 6
        }
      ]
    },
    {
      "name": "Circle.008",
      "primitives": [
        {
          "attributes": {
            "POSITION": 174,
            "NORMAL": 175,
            "TEXCOORD_0": 176
          },
          "indices": 177,
          "material": 6
        }
      ]
    },
    {
      "name": "Circle.009",
      "primitives": [
        {
          "attributes": {
            "POSITION": 178,
            "NORMAL": 179,
            "TEXCOORD_0": 180
          },
          "indices": 181,
          "material": 3
        }
      ]
    },
    {
      "name": "Cube.053",
      "primitives": [
        {
          "attributes": {
            "POSITION": 182,
            "NORMAL": 183,
            "TEXCOORD_0": 184
          },
          "indices": 185,
          "material": 3
        }
      ]
    },
    {
      "name": "Cube.054",
      "primitives": [
        {
          "attributes": {
            "POSITION": 186,
            "NORMAL": 187,
            "TEXCOORD_0": 188
          },
          "indices": 189,
          "material": 3
        }
      ]
    },
    {
      "name": "Cube.055",
      "primitives": [
        {
          "attributes": {
            "POSITION": 190,
            "NORMAL": 191,
            "TEXCOORD_0": 192
          },
          "indices": 193,
          "material": 3
        }
      ]
    },
    {
      "name": "Facade_LeadedWindowGeometry",
      "primitives": [
        {
          "attributes": {
            "POSITION": 194,
            "NORMAL": 195
          },
          "indices": 196,
          "material": 10
        }
      ]
    }
  ],
  "textures": [
    {
      "sampler": 0,
      "source": 0
    },
    {
      "sampler": 0,
      "source": 1
    },
    {
      "sampler": 0,
      "source": 2
    },
    {
      "sampler": 0,
      "source": 3
    },
    {
      "sampler": 0,
      "source": 4
    },
    {
      "sampler": 0,
      "source": 5
    },
    {
      "sampler": 0,
      "source": 6
    },
    {
      "sampler": 0,
      "source": 7
    },
    {
      "sampler": 0,
      "source": 8
    },
    {
      "sampler": 0,
      "source": 9
    },
    {
      "source": 10,
      "sampler": 0
    }
  ],
  "images": [
    {
      "mimeType": "image/jpeg",
      "name": "Rusted Metal",
      "uri": "textures/Rusted%20Metal.jpg"
    },
    {
      "mimeType": "image/jpeg",
      "name": "ThePaintedWenchSign",
      "uri": "textures/ThePaintedWenchSign.jpg"
    },
    {
      "mimeType": "image/jpeg",
      "name": "TreeLogEdgeWeathered",
      "uri": "textures/TreeLogEdgeWeathered.jpg"
    },
    {
      "mimeType": "image/jpeg",
      "name": "Wood",
      "uri": "textures/Wood.jpg"
    },
    {
      "mimeType": "image/jpeg",
      "name": "RoofTiles",
      "uri": "textures/RoofTiles.jpg"
    },
    {
      "mimeType": "image/jpeg",
      "name": "GreyBricks",
      "uri": "textures/GreyBricks.jpg"
    },
    {
      "mimeType": "image/jpeg",
      "name": "castle_wall_slates_nor_gl_2k",
      "uri": "textures/castle_wall_slates_nor_gl_2k.jpg"
    },
    {
      "mimeType": "image/jpeg",
      "name": "castle_wall_slates_diff_2k",
      "uri": "textures/castle_wall_slates_diff_2k.jpg"
    },
    {
      "mimeType": "image/jpeg",
      "name": "DarkStone",
      "uri": "textures/DarkStone.jpg"
    },
    {
      "mimeType": "image/jpeg",
      "name": "DoorType1_2",
      "uri": "textures/DoorType1_2.jpg"
    },
    {
      "uri": "textures/castle_wall_slates_arm_2k.jpg"
    }
  ],
  "accessors": [
    {
      "bufferView": 0,
      "componentType": 5126,
      "count": 1030,
      "max": [
        -1.1478290557861328,
        0.08036172389984131,
        0.9247756004333496
      ],
      "min": [
        -1.2457234859466553,
        -0.38066011667251587,
        -0.01468630600720644
      ],
      "type": "VEC3"
    },
    {
      "bufferView": 1,
      "componentType": 5126,
      "count": 1030,
      "type": "VEC3"
    },
    {
      "bufferView": 2,
      "componentType": 5126,
      "count": 1030,
      "type": "VEC2"
    },
    {
      "bufferView": 3,
      "componentType": 5123,
      "count": 1920,
      "type": "SCALAR"
    },
    {
      "bufferView": 4,
      "componentType": 5126,
      "count": 124,
      "max": [
        -1.1808093786239624,
        -0.12513449788093567,
        0.9584177732467651
      ],
      "min": [
        -1.210809350013733,
        -0.5526062250137329,
        -0.05782878398895264
      ],
      "type": "VEC3"
    },
    {
      "bufferView": 5,
      "componentType": 5126,
      "count": 124,
      "type": "VEC3"
    },
    {
      "bufferView": 6,
      "componentType": 5126,
      "count": 124,
      "type": "VEC2"
    },
    {
      "bufferView": 7,
      "componentType": 5123,
      "count": 288,
      "type": "SCALAR"
    },
    {
      "bufferView": 8,
      "componentType": 5126,
      "count": 88,
      "max": [
        -1.1527377367019653,
        0.08072029054164886,
        0.9745628833770752
      ],
      "min": [
        -1.2388828992843628,
        -0.5526062250137329,
        -0.1394975185394287
      ],
      "type": "VEC3"
    },
    {
      "bufferView": 9,
      "componentType": 5126,
      "count": 88,
      "type": "VEC3"
    },
    {
      "bufferView": 10,
      "componentType": 5126,
      "count": 88,
      "type": "VEC2"
    },
    {
      "bufferView": 11,
      "componentType": 5123,
      "count": 150,
      "type": "SCALAR"
    },
    {
      "bufferView": 12,
      "componentType": 5126,
      "count": 128,
      "max": [
        5.3008317947387695,
        0.19515003263950348,
        1.4980679750442505
      ],
      "min": [
        0.41965341567993164,
        -0.04262262582778931,
        -1.2819005250930786
      ],
      "type": "VEC3"
    },
    {
      "bufferView": 13,
      "componentType": 5126,
      "count": 128,
      "type": "VEC3"
    },
    {
      "bufferView": 14,
      "componentType": 5126,
      "count": 128,
      "type": "VEC2"
    },
    {
      "bufferView": 15,
      "componentType": 5123,
      "count": 192,
      "type": "SCALAR"
    },
    {
      "bufferView": 16,
      "componentType": 5126,
      "count": 40,
      "max": [
        14.382696151733398,
        1.2516186237335205,
        6.652567386627197
      ],
      "min": [
        -3.112950563430786,
        -1.698668360710144,
        -6.658553123474121
      ],
      "type": "VEC3"
    },
    {
      "bufferView": 17,
      "componentType": 5126,
      "count": 40,
      "type": "VEC3"
    },
    {
      "bufferView": 18,
      "componentType": 5126,
      "count": 40,
      "type": "VEC2"
    },
    {
      "bufferView": 19,
      "componentType": 5123,
      "count": 60,
      "type": "SCALAR"
    },
    {
      "bufferView": 20,
      "componentType": 5126,
      "count": 232,
      "max": [
        8.30715560913086,
        -0.07006185501813889,
        1.0799528360366821
      ],
      "min": [
        -0.5492932796478271,
        -2.1784863471984863,
        -0.4778926968574524
      ],
      "type": "VEC3"
    },
    {
      "bufferView": 21,
      "componentType": 5126,
      "count": 232,
      "type": "VEC3"
    },
    {
      "bufferView": 22,
      "componentType": 5126,
      "count": 232,
      "type": "VEC2"
    },
    {
      "bufferView": 23,
      "componentType": 5123,
      "count": 348,
      "type": "SCALAR"
    },
    {
      "bufferView": 24,
      "componentType": 5126,
      "count": 58,
      "max": [
        11.850000381469727,
        3.75,
        6.449999809265137
      ],
      "min": [
        -2.8499999046325684,
        1.249999761581421,
        -6.449999809265137
      ],
      "type": "VEC3"
    },
    {
      "bufferView": 25,
      "componentType": 5126,
      "count": 58,
      "type": "VEC3"
    },
    {
      "bufferView": 26,
      "componentType": 5126,
      "count": 58,
      "type": "VEC2"
    },
    {
      "bufferView": 27,
      "componentType": 5123,
      "count": 96,
      "type": "SCALAR"
    },
    {
      "bufferView": 28,
      "componentType": 5126,
      "count": 312,
      "max": [
        14.205094337463379,
        3.901064157485962,
        6.449999809265137
      ],
      "min": [
        -2.9502642154693604,
        -1.5274028778076172,
        -6.449999809265137
      ],
      "type": "VEC3"
    },
    {
      "bufferView": 29,
      "componentType": 5126,
      "count": 312,
      "type": "VEC3"
    },
    {
      "bufferView": 30,
      "componentType": 5126,
      "count": 312,
      "type": "VEC2"
    },
    {
      "bufferView": 31,
      "componentType": 5123,
      "count": 468,
      "type": "SCALAR"
    },
    {
      "bufferView": 32,
      "componentType": 5126,
      "count": 590,
      "max": [
        14.277828216552734,
        2.8906023502349854,
        0.19601953029632568
      ],
      "min": [
        -0.7302169799804688,
        1.8012135028839111,
        -5.5293731689453125
      ],
      "type": "VEC3"
    },
    {
      "bufferView": 33,
      "componentType": 5126,
      "count": 590,
      "type": "VEC3"
    },
    {
      "bufferView": 34,
      "componentType": 5126,
      "count": 590,
      "type": "VEC2"
    },
    {
      "bufferView": 35,
      "componentType": 5123,
      "count": 1650,
      "type": "SCALAR"
    },
    {
      "bufferView": 36,
      "componentType": 5126,
      "count": 184,
      "max": [
        14.978490829467773,
        4.084076404571533,
        0.8840439915657043
      ],
      "min": [
        -1.390798568725586,
        -9.45067024230957,
        -6.184887409210205
      ],
      "type": "VEC3"
    },
    {
      "bufferView": 37,
      "componentType": 5126,
      "count": 184,
      "type": "VEC3"
    },
    {
      "bufferView": 38,
      "componentType": 5126,
      "count": 184,
      "type": "VEC2"
    },
    {
      "bufferView": 39,
      "componentType": 5123,
      "count": 324,
      "type": "SCALAR"
    },
    {
      "bufferView": 40,
      "componentType": 5126,
      "count": 13,
      "max": [
        0.34059399366378784,
        0.34059399366378784,
        -0.026968862861394882
      ],
      "min": [
        -0.34059399366378784,
        -1.5834633870781545e-07,
        -0.02696916274726391
      ],
      "type": "VEC3"
    },
    {
      "bufferView": 41,
      "componentType": 5126,
      "count": 13,
      "type": "VEC3"
    },
    {
      "bufferView": 42,
      "componentType": 5126,
      "count": 13,
      "type": "VEC2"
    },
    {
      "bufferView": 43,
      "componentType": 5123,
      "count": 33,
      "type": "SCALAR"
    },
    {
      "bufferView": 44,
      "componentType": 5126,
      "count": 8,
      "max": [
        0.39680105447769165,
        0.4058336615562439,
        0.0021514892578125
      ],
      "min": [
        -0.39680105447769165,
        -0.4058336913585663,
        0.0021513402462005615
      ],
      "type": "VEC3"
    },
    {
      "bufferView": 45,
      "componentType": 5126,
      "count": 8,
      "type": "VEC3"
    },
    {
      "bufferView": 46,
      "componentType": 5126,
      "count": 8,
      "type": "VEC2"
    },
    {
      "bufferView": 47,
      "componentType": 5123,
      "count": 12,
      "type": "SCALAR"
    },
    {
      "bufferView": 48,
      "componentType": 5126,
      "count": 8,
      "max": [
        0.39680105447769165,
        0.4058336615562439,
        0.0021514892578125
      ],
      "min": [
        -0.39680105447769165,
        -0.4058336913585663,
        0.0021513402462005615
      ],
      "type": "VEC3"
    },
    {
      "bufferView": 49,
      "componentType": 5126,
      "count": 8,
      "type": "VEC3"
    },
    {
      "bufferView": 50,
      "componentType": 5126,
      "count": 8,
      "type": "VEC2"
    },
    {
      "bufferView": 51,
      "componentType": 5126,
      "count": 8,
      "max": [
        0.39680105447769165,
        0.4058336615562439,
        0.0021514892578125
      ],
      "min": [
        -0.39680105447769165,
        -0.4058336913585663,
        0.0021513402462005615
      ],
      "type": "VEC3"
    },
    {
      "bufferView": 52,
      "componentType": 5126,
      "count": 8,
      "type": "VEC3"
    },
    {
      "bufferView": 53,
      "componentType": 5126,
      "count": 8,
      "type": "VEC2"
    },
    {
      "bufferView": 54,
      "componentType": 5126,
      "count": 8,
      "max": [
        0.39680105447769165,
        0.4058336615562439,
        0.0021514892578125
      ],
      "min": [
        -0.39680105447769165,
        -0.4058336913585663,
        0.0021513402462005615
      ],
      "type": "VEC3"
    },
    {
      "bufferView": 55,
      "componentType": 5126,
      "count": 8,
      "type": "VEC3"
    },
    {
      "bufferView": 56,
      "componentType": 5126,
      "count": 8,
      "type": "VEC2"
    },
    {
      "bufferView": 57,
      "componentType": 5126,
      "count": 8,
      "max": [
        0.39680105447769165,
        0.4058336615562439,
        0.0021514892578125
      ],
      "min": [
        -0.39680105447769165,
        -0.4058336913585663,
        0.0021513402462005615
      ],
      "type": "VEC3"
    },
    {
      "bufferView": 58,
      "componentType": 5126,
      "count": 8,
      "type": "VEC3"
    },
    {
      "bufferView": 59,
      "componentType": 5126,
      "count": 8,
      "type": "VEC2"
    },
    {
      "bufferView": 60,
      "componentType": 5126,
      "count": 8,
      "max": [
        0.39680105447769165,
        0.4058336615562439,
        0.0021514892578125
      ],
      "min": [
        -0.39680105447769165,
        -0.4058336913585663,
        0.0021513402462005615
      ],
      "type": "VEC3"
    },
    {
      "bufferView": 61,
      "componentType": 5126,
      "count": 8,
      "type": "VEC3"
    },
    {
      "bufferView": 62,
      "componentType": 5126,
      "count": 8,
      "type": "VEC2"
    },
    {
      "bufferView": 63,
      "componentType": 5126,
      "count": 8,
      "max": [
        0.39680105447769165,
        0.4058336615562439,
        0.0021514892578125
      ],
      "min": [
        -0.39680105447769165,
        -0.4058336913585663,
        0.0021513402462005615
      ],
      "type": "VEC3"
    },
    {
      "bufferView": 64,
      "componentType": 5126,
      "count": 8,
      "type": "VEC3"
    },
    {
      "bufferView": 65,
      "componentType": 5126,
      "count": 8,
      "type": "VEC2"
    },
    {
      "bufferView": 66,
      "componentType": 5126,
      "count": 8,
      "max": [
        0.39680105447769165,
        0.4058336615562439,
        0.0021514892578125
      ],
      "min": [
        -0.39680105447769165,
        -0.4058336913585663,
        0.0021513402462005615
      ],
      "type": "VEC3"
    },
    {
      "bufferView": 67,
      "componentType": 5126,
      "count": 8,
      "type": "VEC3"
    },
    {
      "bufferView": 68,
      "componentType": 5126,
      "count": 8,
      "type": "VEC2"
    },
    {
      "bufferView": 69,
      "componentType": 5126,
      "count": 8,
      "max": [
        0.39680105447769165,
        0.4058336615562439,
        0.0021514892578125
      ],
      "min": [
        -0.39680105447769165,
        -0.4058336913585663,
        0.0021513402462005615
      ],
      "type": "VEC3"
    },
    {
      "bufferView": 70,
      "componentType": 5126,
      "count": 8,
      "type": "VEC3"
    },
    {
      "bufferView": 71,
      "componentType": 5126,
      "count": 8,
      "type": "VEC2"
    },
    {
      "bufferView": 72,
      "componentType": 5126,
      "count": 8,
      "max": [
        0.39680105447769165,
        0.4058336615562439,
        0.0021514892578125
      ],
      "min": [
        -0.39680105447769165,
        -0.4058336913585663,
        0.0021513402462005615
      ],
      "type": "VEC3"
    },
    {
      "bufferView": 73,
      "componentType": 5126,
      "count": 8,
      "type": "VEC3"
    },
    {
      "bufferView": 74,
      "componentType": 5126,
      "count": 8,
      "type": "VEC2"
    },
    {
      "bufferView": 75,
      "componentType": 5126,
      "count": 8,
      "max": [
        0.39680105447769165,
        0.4058336615562439,
        0.0021514892578125
      ],
      "min": [
        -0.39680105447769165,
        -0.4058336913585663,
        0.0021513402462005615
      ],
      "type": "VEC3"
    },
    {
      "bufferView": 76,
      "componentType": 5126,
      "count": 8,
      "type": "VEC3"
    },
    {
      "bufferView": 77,
      "componentType": 5126,
      "count": 8,
      "type": "VEC2"
    },
    {
      "bufferView": 78,
      "componentType": 5126,
      "count": 8,
      "max": [
        0.39680105447769165,
        0.4058336615562439,
        0.0021514892578125
      ],
      "min": [
        -0.39680105447769165,
        -0.4058336913585663,
        0.0021513402462005615
      ],
      "type": "VEC3"
    },
    {
      "bufferView": 79,
      "componentType": 5126,
      "count": 8,
      "type": "VEC3"
    },
    {
      "bufferView": 80,
      "componentType": 5126,
      "count": 8,
      "type": "VEC2"
    },
    {
      "bufferView": 81,
      "componentType": 5126,
      "count": 1442,
      "max": [
        12.750009536743164,
        1.25,
        -1.6499700546264648
      ],
      "min": [
        -0.14999401569366455,
        -1.250001311302185,
        -16.349977493286133
      ],
      "type": "VEC3"
    },
    {
      "bufferView": 82,
      "componentType": 5126,
      "count": 1442,
      "type": "VEC3"
    },
    {
      "bufferView": 83,
      "componentType": 5126,
      "count": 1442,
      "type": "VEC2"
    },
    {
      "bufferView": 84,
      "componentType": 5123,
      "count": 2250,
      "type": "SCALAR"
    },
    {
      "bufferView": 85,
      "componentType": 5126,
      "count": 8,
      "max": [
        0.39680105447769165,
        0.4058336615562439,
        0.0021514892578125
      ],
      "min": [
        -0.39680105447769165,
        -0.4058336913585663,
        0.0021513402462005615
      ],
      "type": "VEC3"
    },
    {
      "bufferView": 86,
      "componentType": 5126,
      "count": 8,
      "type": "VEC3"
    },
    {
      "bufferView": 87,
      "componentType": 5126,
      "count": 8,
      "type": "VEC2"
    },
    {
      "bufferView": 88,
      "componentType": 5126,
      "count": 8,
      "max": [
        0.39680105447769165,
        0.4058336615562439,
        0.0021514892578125
      ],
      "min": [
        -0.39680105447769165,
        -0.4058336913585663,
        0.0021513402462005615
      ],
      "type": "VEC3"
    },
    {
      "bufferView": 89,
      "componentType": 5126,
      "count": 8,
      "type": "VEC3"
    },
    {
      "bufferView": 90,
      "componentType": 5126,
      "count": 8,
      "type": "VEC2"
    },
    {
      "bufferView": 91,
      "componentType": 5126,
      "count": 13,
      "max": [
        0.34059399366378784,
        0.34059399366378784,
        -0.026968862861394882
      ],
      "min": [
        -0.34059399366378784,
        -1.5834633870781545e-07,
        -0.02696916274726391
      ],
      "type": "VEC3"
    },
    {
      "bufferView": 92,
      "componentType": 5126,
      "count": 13,
      "type": "VEC3"
    },
    {
      "bufferView": 93,
      "componentType": 5126,
      "count": 13,
      "type": "VEC2"
    },
    {
      "bufferView": 94,
      "componentType": 5126,
      "count": 60,
      "max": [
        0.7489823698997498,
        -1.0683518648147583,
        12.084108352661133
      ],
      "min": [
        -7.915743827819824,
        -1.1898691654205322,
        0.7190541625022888
      ],
      "type": "VEC3"
    },
    {
      "bufferView": 95,
      "componentType": 5126,
      "count": 60,
      "type": "VEC3"
    },
    {
      "bufferView": 96,
      "componentType": 5126,
      "count": 60,
      "type": "VEC2"
    },
    {
      "bufferView": 97,
      "componentType": 5123,
      "count": 90,
      "type": "SCALAR"
    },
    {
      "bufferView": 98,
      "componentType": 5126,
      "count": 263,
      "max": [
        0.4630659520626068,
        -0.14078082144260406,
        1.047410488128662
      ],
      "min": [
        0.34078338742256165,
        -0.30050909519195557,
        0.9937681555747986
      ],
      "type": "VEC3"
    },
    {
      "bufferView": 99,
      "componentType": 5126,
      "count": 263,
      "type": "VEC3"
    },
    {
      "bufferView": 100,
      "componentType": 5126,
      "count": 263,
      "type": "VEC2"
    },
    {
      "bufferView": 101,
      "componentType": 5123,
      "count": 1098,
      "type": "SCALAR"
    },
    {
      "bufferView": 102,
      "componentType": 5126,
      "count": 216,
      "max": [
        0.06799483299255371,
        0.9155003428459167,
        -5.711381435394287
      ],
      "min": [
        0.007993290200829506,
        -1.1528515815734863,
        -6.84924840927124
      ],
      "type": "VEC3"
    },
    {
      "bufferView": 103,
      "componentType": 5126,
      "count": 216,
      "type": "VEC3"
    },
    {
      "bufferView": 104,
      "componentType": 5126,
      "count": 216,
      "type": "VEC2"
    },
    {
      "bufferView": 105,
      "componentType": 5123,
      "count": 324,
      "type": "SCALAR"
    },
    {
      "bufferView": 106,
      "componentType": 5126,
      "count": 263,
      "max": [
        0.4630659520626068,
        -0.14078082144260406,
        1.047410488128662
      ],
      "min": [
        0.34078338742256165,
        -0.30050909519195557,
        0.9937681555747986
      ],
      "type": "VEC3"
    },
    {
      "bufferView": 107,
      "componentType": 5126,
      "count": 263,
      "type": "VEC3"
    },
    {
      "bufferView": 108,
      "componentType": 5126,
      "count": 263,
      "type": "VEC2"
    },
    {
      "bufferView": 109,
      "componentType": 5126,
      "count": 216,
      "max": [
        6.642154216766357,
        3.6552886962890625,
        0.2646557688713074
      ],
      "min": [
        5.504287242889404,
        1.5869368314743042,
        0.20465517044067383
      ],
      "type": "VEC3"
    },
    {
      "bufferView": 110,
      "componentType": 5126,
      "count": 216,
      "type": "VEC3"
    },
    {
      "bufferView": 111,
      "componentType": 5126,
      "count": 216,
      "type": "VEC2"
    },
    {
      "bufferView": 112,
      "componentType": 5123,
      "count": 324,
      "type": "SCALAR"
    },
    {
      "bufferView": 113,
      "componentType": 5126,
      "count": 263,
      "max": [
        0.4630659520626068,
        -0.14078082144260406,
        1.047410488128662
      ],
      "min": [
        0.34078338742256165,
        -0.30050909519195557,
        0.9937681555747986
      ],
      "type": "VEC3"
    },
    {
      "bufferView": 114,
      "componentType": 5126,
      "count": 263,
      "type": "VEC3"
    },
    {
      "bufferView": 115,
      "componentType": 5126,
      "count": 263,
      "type": "VEC2"
    },
    {
      "bufferView": 116,
      "componentType": 5126,
      "count": 216,
      "max": [
        0.062283389270305634,
        0.9154998064041138,
        1.4553802013397217
      ],
      "min": [
        0.002281853696331382,
        -1.1528520584106445,
        0.31751346588134766
      ],
      "type": "VEC3"
    },
    {
      "bufferView": 117,
      "componentType": 5126,
      "count": 216,
      "type": "VEC3"
    },
    {
      "bufferView": 118,
      "componentType": 5126,
      "count": 216,
      "type": "VEC2"
    },
    {
      "bufferView": 119,
      "componentType": 5126,
      "count": 8,
      "max": [
        0.39680105447769165,
        0.4058336615562439,
        0.0021514892578125
      ],
      "min": [
        -0.39680105447769165,
        -0.4058336913585663,
        0.0021513402462005615
      ],
      "type": "VEC3"
    },
    {
      "bufferView": 120,
      "componentType": 5126,
      "count": 8,
      "type": "VEC3"
    },
    {
      "bufferView": 121,
      "componentType": 5126,
      "count": 8,
      "type": "VEC2"
    },
    {
      "bufferView": 122,
      "componentType": 5126,
      "count": 8,
      "max": [
        0.39680105447769165,
        0.4058336615562439,
        0.0021514892578125
      ],
      "min": [
        -0.39680105447769165,
        -0.4058336913585663,
        0.0021513402462005615
      ],
      "type": "VEC3"
    },
    {
      "bufferView": 123,
      "componentType": 5126,
      "count": 8,
      "type": "VEC3"
    },
    {
      "bufferView": 124,
      "componentType": 5126,
      "count": 8,
      "type": "VEC2"
    },
    {
      "bufferView": 125,
      "componentType": 5126,
      "count": 8,
      "max": [
        0.39680105447769165,
        0.4058336615562439,
        0.0021514892578125
      ],
      "min": [
        -0.39680105447769165,
        -0.4058336913585663,
        0.0021513402462005615
      ],
      "type": "VEC3"
    },
    {
      "bufferView": 126,
      "componentType": 5126,
      "count": 8,
      "type": "VEC3"
    },
    {
      "bufferView": 127,
      "componentType": 5126,
      "count": 8,
      "type": "VEC2"
    },
    {
      "bufferView": 128,
      "componentType": 5126,
      "count": 8,
      "max": [
        0.39680105447769165,
        0.4058336615562439,
        0.0021514892578125
      ],
      "min": [
        -0.39680105447769165,
        -0.4058336913585663,
        0.0021513402462005615
      ],
      "type": "VEC3"
    },
    {
      "bufferView": 129,
      "componentType": 5126,
      "count": 8,
      "type": "VEC3"
    },
    {
      "bufferView": 130,
      "componentType": 5126,
      "count": 8,
      "type": "VEC2"
    },
    {
      "bufferView": 131,
      "componentType": 5126,
      "count": 8,
      "max": [
        0.39680105447769165,
        0.4058336615562439,
        0.0021514892578125
      ],
      "min": [
        -0.39680105447769165,
        -0.4058336913585663,
        0.0021513402462005615
      ],
      "type": "VEC3"
    },
    {
      "bufferView": 132,
      "componentType": 5126,
      "count": 8,
      "type": "VEC3"
    },
    {
      "bufferView": 133,
      "componentType": 5126,
      "count": 8,
      "type": "VEC2"
    },
    {
      "bufferView": 134,
      "componentType": 5126,
      "count": 16,
      "max": [
        11.490778923034668,
        1.8021427392959595,
        0
      ],
      "min": [
        9.149999618530273,
        -1.250001311302185,
        -3.594454765319824
      ],
      "type": "VEC3"
    },
    {
      "bufferView": 135,
      "componentType": 5126,
      "count": 16,
      "type": "VEC3"
    },
    {
      "bufferView": 136,
      "componentType": 5126,
      "count": 16,
      "type": "VEC2"
    },
    {
      "bufferView": 137,
      "componentType": 5123,
      "count": 30,
      "type": "SCALAR"
    },
    {
      "bufferView": 138,
      "componentType": 5126,
      "count": 92,
      "max": [
        14.20043659210205,
        3.8848702907562256,
        6.449999809265137
      ],
      "min": [
        -2.9502642154693604,
        -1.5982645750045776,
        -6.450000286102295
      ],
      "type": "VEC3"
    },
    {
      "bufferView": 139,
      "componentType": 5126,
      "count": 92,
      "type": "VEC3"
    },
    {
      "bufferView": 140,
      "componentType": 5126,
      "count": 92,
      "type": "VEC2"
    },
    {
      "bufferView": 141,
      "componentType": 5123,
      "count": 138,
      "type": "SCALAR"
    },
    {
      "bufferView": 142,
      "componentType": 5126,
      "count": 982,
      "max": [
        14.382696151733398,
        3.8459010124206543,
        6.652567386627197
      ],
      "min": [
        -3.112950563430786,
        -1.698668360710144,
        -6.670454978942871
      ],
      "type": "VEC3"
    },
    {
      "bufferView": 143,
      "componentType": 5126,
      "count": 982,
      "type": "VEC3"
    },
    {
      "bufferView": 144,
      "componentType": 5126,
      "count": 982,
      "type": "VEC2"
    },
    {
      "bufferView": 145,
      "componentType": 5123,
      "count": 1482,
      "type": "SCALAR"
    },
    {
      "bufferView": 146,
      "componentType": 5126,
      "count": 331,
      "max": [
        11.850000381469727,
        1.25,
        6.449999809265137
      ],
      "min": [
        -2.8499999046325684,
        -1.25,
        -6.449999809265137
      ],
      "type": "VEC3"
    },
    {
      "bufferView": 147,
      "componentType": 5126,
      "count": 331,
      "type": "VEC3"
    },
    {
      "bufferView": 148,
      "componentType": 5126,
      "count": 331,
      "type": "VEC2"
    },
    {
      "bufferView": 149,
      "componentType": 5123,
      "count": 750,
      "type": "SCALAR"
    },
    {
      "bufferView": 150,
      "componentType": 5126,
      "count": 384,
      "max": [
        9.050000190734863,
        -0.9499999284744263,
        1.8499999046325684
      ],
      "min": [
        -5.450000762939453,
        -1.250001072883606,
        -10.850000381469727
      ],
      "type": "VEC3"
    },
    {
      "bufferView": 151,
      "componentType": 5126,
      "count": 384,
      "type": "VEC3"
    },
    {
      "bufferView": 152,
      "componentType": 5126,
      "count": 384,
      "type": "VEC2"
    },
    {
      "bufferView": 153,
      "componentType": 5123,
      "count": 576,
      "type": "SCALAR"
    },
    {
      "bufferView": 154,
      "componentType": 5126,
      "count": 120,
      "max": [
        -0.8489351272583008,
        0.1500001847743988,
        2.917943239212036
      ],
      "min": [
        -15.655149459838867,
        -0.14999991655349731,
        -10.11383056640625
      ],
      "type": "VEC3"
    },
    {
      "bufferView": 155,
      "componentType": 5126,
      "count": 120,
      "type": "VEC3"
    },
    {
      "bufferView": 156,
      "componentType": 5126,
      "count": 120,
      "type": "VEC2"
    },
    {
      "bufferView": 157,
      "componentType": 5123,
      "count": 180,
      "type": "SCALAR"
    },
    {
      "bufferView": 158,
      "componentType": 5126,
      "count": 8,
      "max": [
        0.39680105447769165,
        0.4058336615562439,
        0.0021514892578125
      ],
      "min": [
        -0.39680105447769165,
        -0.4058336913585663,
        0.0021513402462005615
      ],
      "type": "VEC3"
    },
    {
      "bufferView": 159,
      "componentType": 5126,
      "count": 8,
      "type": "VEC3"
    },
    {
      "bufferView": 160,
      "componentType": 5126,
      "count": 8,
      "type": "VEC2"
    },
    {
      "bufferView": 161,
      "componentType": 5126,
      "count": 216,
      "max": [
        10.899477005004883,
        0.9154998064041138,
        0.2595863342285156
      ],
      "min": [
        9.76161003112793,
        -1.1528520584106445,
        0.19958573579788208
      ],
      "type": "VEC3"
    },
    {
      "bufferView": 162,
      "componentType": 5126,
      "count": 216,
      "type": "VEC3"
    },
    {
      "bufferView": 163,
      "componentType": 5126,
      "count": 216,
      "type": "VEC2"
    },
    {
      "bufferView": 164,
      "componentType": 5126,
      "count": 176,
      "max": [
        0.7686129212379456,
        3.893580436706543,
        2.468055486679077
      ],
      "min": [
        -10.616071701049805,
        -1.0683518648147583,
        -6.235933303833008
      ],
      "type": "VEC3"
    },
    {
      "bufferView": 165,
      "componentType": 5126,
      "count": 176,
      "type": "VEC3"
    },
    {
      "bufferView": 166,
      "componentType": 5126,
      "count": 176,
      "type": "VEC2"
    },
    {
      "bufferView": 167,
      "componentType": 5123,
      "count": 264,
      "type": "SCALAR"
    },
    {
      "bufferView": 168,
      "componentType": 5126,
      "count": 263,
      "max": [
        0.4630659520626068,
        -0.14078082144260406,
        1.047410488128662
      ],
      "min": [
        0.34078338742256165,
        -0.30050909519195557,
        0.9937681555747986
      ],
      "type": "VEC3"
    },
    {
      "bufferView": 169,
      "componentType": 5126,
      "count": 263,
      "type": "VEC3"
    },
    {
      "bufferView": 170,
      "componentType": 5126,
      "count": 263,
      "type": "VEC2"
    },
    {
      "bufferView": 171,
      "componentType": 5126,
      "count": 13,
      "max": [
        0.34059399366378784,
        0.34059399366378784,
        -0.026968862861394882
      ],
      "min": [
        -0.34059399366378784,
        -1.5834633870781545e-07,
        -0.02696916274726391
      ],
      "type": "VEC3"
    },
    {
      "bufferView": 172,
      "componentType": 5126,
      "count": 13,
      "type": "VEC3"
    },
    {
      "bufferView": 173,
      "componentType": 5126,
      "count": 13,
      "type": "VEC2"
    },
    {
      "bufferView": 174,
      "componentType": 5126,
      "count": 24,
      "max": [
        0.3376801908016205,
        0.3376801609992981,
        -0.04165855422616005
      ],
      "min": [
        -0.3376801908016205,
        -0.3376801908016205,
        -0.041659142822027206
      ],
      "type": "VEC3"
    },
    {
      "bufferView": 175,
      "componentType": 5126,
      "count": 24,
      "type": "VEC3"
    },
    {
      "bufferView": 176,
      "componentType": 5126,
      "count": 24,
      "type": "VEC2"
    },
    {
      "bufferView": 177,
      "componentType": 5123,
      "count": 66,
      "type": "SCALAR"
    },
    {
      "bufferView": 178,
      "componentType": 5126,
      "count": 2771,
      "max": [
        11.808540344238281,
        0.413433700799942,
        3.630677269939042e-07
      ],
      "min": [
        -2.754915952682495,
        -5.584346771240234,
        -12.497952461242676
      ],
      "type": "VEC3"
    },
    {
      "bufferView": 179,
      "componentType": 5126,
      "count": 2771,
      "type": "VEC3"
    },
    {
      "bufferView": 180,
      "componentType": 5126,
      "count": 2771,
      "type": "VEC2"
    },
    {
      "bufferView": 181,
      "componentType": 5123,
      "count": 4494,
      "type": "SCALAR"
    },
    {
      "bufferView": 182,
      "componentType": 5126,
      "count": 1548,
      "max": [
        8.30715560913086,
        0.3613937497138977,
        1.0799528360366821
      ],
      "min": [
        -0.5503953695297241,
        -4.872123718261719,
        -0.5790964961051941
      ],
      "type": "VEC3"
    },
    {
      "bufferView": 183,
      "componentType": 5126,
      "count": 1548,
      "type": "VEC3"
    },
    {
      "bufferView": 184,
      "componentType": 5126,
      "count": 1548,
      "type": "VEC2"
    },
    {
      "bufferView": 185,
      "componentType": 5123,
      "count": 2400,
      "type": "SCALAR"
    },
    {
      "bufferView": 186,
      "componentType": 5126,
      "count": 394,
      "max": [
        8.120800018310547,
        0.19515003263950348,
        1.4980679750442505
      ],
      "min": [
        -0.5204899907112122,
        -0.04262262582778931,
        -1.4199758768081665
      ],
      "type": "VEC3"
    },
    {
      "bufferView": 187,
      "componentType": 5126,
      "count": 394,
      "type": "VEC3"
    },
    {
      "bufferView": 188,
      "componentType": 5126,
      "count": 394,
      "type": "VEC2"
    },
    {
      "bufferView": 189,
      "componentType": 5123,
      "count": 624,
      "type": "SCALAR"
    },
    {
      "bufferView": 190,
      "componentType": 5126,
      "count": 304,
      "max": [
        0.12558263540267944,
        5.014625072479248,
        14.525854110717773
      ],
      "min": [
        -1.5529706478118896,
        -7.935386657714844,
        -0.09221715480089188
      ],
      "type": "VEC3"
    },
    {
      "bufferView": 191,
      "componentType": 5126,
      "count": 304,
      "type": "VEC3"
    },
    {
      "bufferView": 192,
      "componentType": 5126,
      "count": 304,
      "type": "VEC2"
    },
    {
      "bufferView": 193,
      "componentType": 5123,
      "count": 456,
      "type": "SCALAR"
    },
    {
      "bufferView": 194,
      "componentType": 5126,
      "count": 1440,
      "max": [
        9.084996223449707,
        3.487487316131592,
        1.8173977136611938
      ],
      "min": [
        -5.466629981994629,
        -0.06302791833877563,
        -10.33759880065918
      ],
      "type": "VEC3"
    },
    {
      "bufferView": 195,
      "componentType": 5126,
      "count": 1440,
      "type": "VEC3"
    },
    {
      "bufferView": 196,
      "componentType": 5123,
      "count": 2160,
      "type": "SCALAR"
    }
  ],
  "bufferViews": [
    {
      "buffer": 0,
      "byteLength": 12360,
      "byteOffset": 0,
      "target": 34962
    },
    {
      "buffer": 0,
      "byteLength": 12360,
      "byteOffset": 12360,
      "target": 34962
    },
    {
      "buffer": 0,
      "byteLength": 8240,
      "byteOffset": 24720,
      "target": 34962
    },
    {
      "buffer": 0,
      "byteLength": 3840,
      "byteOffset": 32960,
      "target": 34963
    },
    {
      "buffer": 0,
      "byteLength": 1488,
      "byteOffset": 36800,
      "target": 34962
    },
    {
      "buffer": 0,
      "byteLength": 1488,
      "byteOffset": 38288,
      "target": 34962
    },
    {
      "buffer": 0,
      "byteLength": 992,
      "byteOffset": 39776,
      "target": 34962
    },
    {
      "buffer": 0,
      "byteLength": 576,
      "byteOffset": 40768,
      "target": 34963
    },
    {
      "buffer": 0,
      "byteLength": 1056,
      "byteOffset": 41344,
      "target": 34962
    },
    {
      "buffer": 0,
      "byteLength": 1056,
      "byteOffset": 42400,
      "target": 34962
    },
    {
      "buffer": 0,
      "byteLength": 704,
      "byteOffset": 43456,
      "target": 34962
    },
    {
      "buffer": 0,
      "byteLength": 300,
      "byteOffset": 44160,
      "target": 34963
    },
    {
      "buffer": 0,
      "byteLength": 1536,
      "byteOffset": 44460,
      "target": 34962
    },
    {
      "buffer": 0,
      "byteLength": 1536,
      "byteOffset": 45996,
      "target": 34962
    },
    {
      "buffer": 0,
      "byteLength": 1024,
      "byteOffset": 47532,
      "target": 34962
    },
    {
      "buffer": 0,
      "byteLength": 384,
      "byteOffset": 48556,
      "target": 34963
    },
    {
      "buffer": 0,
      "byteLength": 480,
      "byteOffset": 48940,
      "target": 34962
    },
    {
      "buffer": 0,
      "byteLength": 480,
      "byteOffset": 49420,
      "target": 34962
    },
    {
      "buffer": 0,
      "byteLength": 320,
      "byteOffset": 49900,
      "target": 34962
    },
    {
      "buffer": 0,
      "byteLength": 120,
      "byteOffset": 50220,
      "target": 34963
    },
    {
      "buffer": 0,
      "byteLength": 2784,
      "byteOffset": 50340,
      "target": 34962
    },
    {
      "buffer": 0,
      "byteLength": 2784,
      "byteOffset": 53124,
      "target": 34962
    },
    {
      "buffer": 0,
      "byteLength": 1856,
      "byteOffset": 55908,
      "target": 34962
    },
    {
      "buffer": 0,
      "byteLength": 696,
      "byteOffset": 57764,
      "target": 34963
    },
    {
      "buffer": 0,
      "byteLength": 696,
      "byteOffset": 58460,
      "target": 34962
    },
    {
      "buffer": 0,
      "byteLength": 696,
      "byteOffset": 59156,
      "target": 34962
    },
    {
      "buffer": 0,
      "byteLength": 464,
      "byteOffset": 59852,
      "target": 34962
    },
    {
      "buffer": 0,
      "byteLength": 192,
      "byteOffset": 60316,
      "target": 34963
    },
    {
      "buffer": 0,
      "byteLength": 3744,
      "byteOffset": 60508,
      "target": 34962
    },
    {
      "buffer": 0,
      "byteLength": 3744,
      "byteOffset": 64252,
      "target": 34962
    },
    {
      "buffer": 0,
      "byteLength": 2496,
      "byteOffset": 67996,
      "target": 34962
    },
    {
      "buffer": 0,
      "byteLength": 936,
      "byteOffset": 70492,
      "target": 34963
    },
    {
      "buffer": 0,
      "byteLength": 7080,
      "byteOffset": 71428,
      "target": 34962
    },
    {
      "buffer": 0,
      "byteLength": 7080,
      "byteOffset": 78508,
      "target": 34962
    },
    {
      "buffer": 0,
      "byteLength": 4720,
      "byteOffset": 85588,
      "target": 34962
    },
    {
      "buffer": 0,
      "byteLength": 3300,
      "byteOffset": 90308,
      "target": 34963
    },
    {
      "buffer": 0,
      "byteLength": 2208,
      "byteOffset": 93608,
      "target": 34962
    },
    {
      "buffer": 0,
      "byteLength": 2208,
      "byteOffset": 95816,
      "target": 34962
    },
    {
      "buffer": 0,
      "byteLength": 1472,
      "byteOffset": 98024,
      "target": 34962
    },
    {
      "buffer": 0,
      "byteLength": 648,
      "byteOffset": 99496,
      "target": 34963
    },
    {
      "buffer": 0,
      "byteLength": 156,
      "byteOffset": 100144,
      "target": 34962
    },
    {
      "buffer": 0,
      "byteLength": 156,
      "byteOffset": 100300,
      "target": 34962
    },
    {
      "buffer": 0,
      "byteLength": 104,
      "byteOffset": 100456,
      "target": 34962
    },
    {
      "buffer": 0,
      "byteLength": 66,
      "byteOffset": 100560,
      "target": 34963
    },
    {
      "buffer": 0,
      "byteLength": 96,
      "byteOffset": 100628,
      "target": 34962
    },
    {
      "buffer": 0,
      "byteLength": 96,
      "byteOffset": 100724,
      "target": 34962
    },
    {
      "buffer": 0,
      "byteLength": 64,
      "byteOffset": 100820,
      "target": 34962
    },
    {
      "buffer": 0,
      "byteLength": 24,
      "byteOffset": 100884,
      "target": 34963
    },
    {
      "buffer": 0,
      "byteLength": 96,
      "byteOffset": 100908,
      "target": 34962
    },
    {
      "buffer": 0,
      "byteLength": 96,
      "byteOffset": 101004,
      "target": 34962
    },
    {
      "buffer": 0,
      "byteLength": 64,
      "byteOffset": 101100,
      "target": 34962
    },
    {
      "buffer": 0,
      "byteLength": 96,
      "byteOffset": 101164,
      "target": 34962
    },
    {
      "buffer": 0,
      "byteLength": 96,
      "byteOffset": 101260,
      "target": 34962
    },
    {
      "buffer": 0,
      "byteLength": 64,
      "byteOffset": 101356,
      "target": 34962
    },
    {
      "buffer": 0,
      "byteLength": 96,
      "byteOffset": 101420,
      "target": 34962
    },
    {
      "buffer": 0,
      "byteLength": 96,
      "byteOffset": 101516,
      "target": 34962
    },
    {
      "buffer": 0,
      "byteLength": 64,
      "byteOffset": 101612,
      "target": 34962
    },
    {
      "buffer": 0,
      "byteLength": 96,
      "byteOffset": 101676,
      "target": 34962
    },
    {
      "buffer": 0,
      "byteLength": 96,
      "byteOffset": 101772,
      "target": 34962
    },
    {
      "buffer": 0,
      "byteLength": 64,
      "byteOffset": 101868,
      "target": 34962
    },
    {
      "buffer": 0,
      "byteLength": 96,
      "byteOffset": 101932,
      "target": 34962
    },
    {
      "buffer": 0,
      "byteLength": 96,
      "byteOffset": 102028,
      "target": 34962
    },
    {
      "buffer": 0,
      "byteLength": 64,
      "byteOffset": 102124,
      "target": 34962
    },
    {
      "buffer": 0,
      "byteLength": 96,
      "byteOffset": 102188,
      "target": 34962
    },
    {
      "buffer": 0,
      "byteLength": 96,
      "byteOffset": 102284,
      "target": 34962
    },
    {
      "buffer": 0,
      "byteLength": 64,
      "byteOffset": 102380,
      "target": 34962
    },
    {
      "buffer": 0,
      "byteLength": 96,
      "byteOffset": 102444,
      "target": 34962
    },
    {
      "buffer": 0,
      "byteLength": 96,
      "byteOffset": 102540,
      "target": 34962
    },
    {
      "buffer": 0,
      "byteLength": 64,
      "byteOffset": 102636,
      "target": 34962
    },
    {
      "buffer": 0,
      "byteLength": 96,
      "byteOffset": 102700,
      "target": 34962
    },
    {
      "buffer": 0,
      "byteLength": 96,
      "byteOffset": 102796,
      "target": 34962
    },
    {
      "buffer": 0,
      "byteLength": 64,
      "byteOffset": 102892,
      "target": 34962
    },
    {
      "buffer": 0,
      "byteLength": 96,
      "byteOffset": 102956,
      "target": 34962
    },
    {
      "buffer": 0,
      "byteLength": 96,
      "byteOffset": 103052,
      "target": 34962
    },
    {
      "buffer": 0,
      "byteLength": 64,
      "byteOffset": 103148,
      "target": 34962
    },
    {
      "buffer": 0,
      "byteLength": 96,
      "byteOffset": 103212,
      "target": 34962
    },
    {
      "buffer": 0,
      "byteLength": 96,
      "byteOffset": 103308,
      "target": 34962
    },
    {
      "buffer": 0,
      "byteLength": 64,
      "byteOffset": 103404,
      "target": 34962
    },
    {
      "buffer": 0,
      "byteLength": 96,
      "byteOffset": 103468,
      "target": 34962
    },
    {
      "buffer": 0,
      "byteLength": 96,
      "byteOffset": 103564,
      "target": 34962
    },
    {
      "buffer": 0,
      "byteLength": 64,
      "byteOffset": 103660,
      "target": 34962
    },
    {
      "buffer": 0,
      "byteLength": 17304,
      "byteOffset": 103724,
      "target": 34962
    },
    {
      "buffer": 0,
      "byteLength": 17304,
      "byteOffset": 121028,
      "target": 34962
    },
    {
      "buffer": 0,
      "byteLength": 11536,
      "byteOffset": 138332,
      "target": 34962
    },
    {
      "buffer": 0,
      "byteLength": 4500,
      "byteOffset": 149868,
      "target": 34963
    },
    {
      "buffer": 0,
      "byteLength": 96,
      "byteOffset": 154368,
      "target": 34962
    },
    {
      "buffer": 0,
      "byteLength": 96,
      "byteOffset": 154464,
      "target": 34962
    },
    {
      "buffer": 0,
      "byteLength": 64,
      "byteOffset": 154560,
      "target": 34962
    },
    {
      "buffer": 0,
      "byteLength": 96,
      "byteOffset": 154624,
      "target": 34962
    },
    {
      "buffer": 0,
      "byteLength": 96,
      "byteOffset": 154720,
      "target": 34962
    },
    {
      "buffer": 0,
      "byteLength": 64,
      "byteOffset": 154816,
      "target": 34962
    },
    {
      "buffer": 0,
      "byteLength": 156,
      "byteOffset": 154880,
      "target": 34962
    },
    {
      "buffer": 0,
      "byteLength": 156,
      "byteOffset": 155036,
      "target": 34962
    },
    {
      "buffer": 0,
      "byteLength": 104,
      "byteOffset": 155192,
      "target": 34962
    },
    {
      "buffer": 0,
      "byteLength": 720,
      "byteOffset": 155296,
      "target": 34962
    },
    {
      "buffer": 0,
      "byteLength": 720,
      "byteOffset": 156016,
      "target": 34962
    },
    {
      "buffer": 0,
      "byteLength": 480,
      "byteOffset": 156736,
      "target": 34962
    },
    {
      "buffer": 0,
      "byteLength": 180,
      "byteOffset": 157216,
      "target": 34963
    },
    {
      "buffer": 0,
      "byteLength": 3156,
      "byteOffset": 157396,
      "target": 34962
    },
    {
      "buffer": 0,
      "byteLength": 3156,
      "byteOffset": 160552,
      "target": 34962
    },
    {
      "buffer": 0,
      "byteLength": 2104,
      "byteOffset": 163708,
      "target": 34962
    },
    {
      "buffer": 0,
      "byteLength": 2196,
      "byteOffset": 165812,
      "target": 34963
    },
    {
      "buffer": 0,
      "byteLength": 2592,
      "byteOffset": 168008,
      "target": 34962
    },
    {
      "buffer": 0,
      "byteLength": 2592,
      "byteOffset": 170600,
      "target": 34962
    },
    {
      "buffer": 0,
      "byteLength": 1728,
      "byteOffset": 173192,
      "target": 34962
    },
    {
      "buffer": 0,
      "byteLength": 648,
      "byteOffset": 174920,
      "target": 34963
    },
    {
      "buffer": 0,
      "byteLength": 3156,
      "byteOffset": 175568,
      "target": 34962
    },
    {
      "buffer": 0,
      "byteLength": 3156,
      "byteOffset": 178724,
      "target": 34962
    },
    {
      "buffer": 0,
      "byteLength": 2104,
      "byteOffset": 181880,
      "target": 34962
    },
    {
      "buffer": 0,
      "byteLength": 2592,
      "byteOffset": 183984,
      "target": 34962
    },
    {
      "buffer": 0,
      "byteLength": 2592,
      "byteOffset": 186576,
      "target": 34962
    },
    {
      "buffer": 0,
      "byteLength": 1728,
      "byteOffset": 189168,
      "target": 34962
    },
    {
      "buffer": 0,
      "byteLength": 648,
      "byteOffset": 190896,
      "target": 34963
    },
    {
      "buffer": 0,
      "byteLength": 3156,
      "byteOffset": 191544,
      "target": 34962
    },
    {
      "buffer": 0,
      "byteLength": 3156,
      "byteOffset": 194700,
      "target": 34962
    },
    {
      "buffer": 0,
      "byteLength": 2104,
      "byteOffset": 197856,
      "target": 34962
    },
    {
      "buffer": 0,
      "byteLength": 2592,
      "byteOffset": 199960,
      "target": 34962
    },
    {
      "buffer": 0,
      "byteLength": 2592,
      "byteOffset": 202552,
      "target": 34962
    },
    {
      "buffer": 0,
      "byteLength": 1728,
      "byteOffset": 205144,
      "target": 34962
    },
    {
      "buffer": 0,
      "byteLength": 96,
      "byteOffset": 206872,
      "target": 34962
    },
    {
      "buffer": 0,
      "byteLength": 96,
      "byteOffset": 206968,
      "target": 34962
    },
    {
      "buffer": 0,
      "byteLength": 64,
      "byteOffset": 207064,
      "target": 34962
    },
    {
      "buffer": 0,
      "byteLength": 96,
      "byteOffset": 207128,
      "target": 34962
    },
    {
      "buffer": 0,
      "byteLength": 96,
      "byteOffset": 207224,
      "target": 34962
    },
    {
      "buffer": 0,
      "byteLength": 64,
      "byteOffset": 207320,
      "target": 34962
    },
    {
      "buffer": 0,
      "byteLength": 96,
      "byteOffset": 207384,
      "target": 34962
    },
    {
      "buffer": 0,
      "byteLength": 96,
      "byteOffset": 207480,
      "target": 34962
    },
    {
      "buffer": 0,
      "byteLength": 64,
      "byteOffset": 207576,
      "target": 34962
    },
    {
      "buffer": 0,
      "byteLength": 96,
      "byteOffset": 207640,
      "target": 34962
    },
    {
      "buffer": 0,
      "byteLength": 96,
      "byteOffset": 207736,
      "target": 34962
    },
    {
      "buffer": 0,
      "byteLength": 64,
      "byteOffset": 207832,
      "target": 34962
    },
    {
      "buffer": 0,
      "byteLength": 96,
      "byteOffset": 207896,
      "target": 34962
    },
    {
      "buffer": 0,
      "byteLength": 96,
      "byteOffset": 207992,
      "target": 34962
    },
    {
      "buffer": 0,
      "byteLength": 64,
      "byteOffset": 208088,
      "target": 34962
    },
    {
      "buffer": 0,
      "byteLength": 192,
      "byteOffset": 208152,
      "target": 34962
    },
    {
      "buffer": 0,
      "byteLength": 192,
      "byteOffset": 208344,
      "target": 34962
    },
    {
      "buffer": 0,
      "byteLength": 128,
      "byteOffset": 208536,
      "target": 34962
    },
    {
      "buffer": 0,
      "byteLength": 60,
      "byteOffset": 208664,
      "target": 34963
    },
    {
      "buffer": 0,
      "byteLength": 1104,
      "byteOffset": 208724,
      "target": 34962
    },
    {
      "buffer": 0,
      "byteLength": 1104,
      "byteOffset": 209828,
      "target": 34962
    },
    {
      "buffer": 0,
      "byteLength": 736,
      "byteOffset": 210932,
      "target": 34962
    },
    {
      "buffer": 0,
      "byteLength": 276,
      "byteOffset": 211668,
      "target": 34963
    },
    {
      "buffer": 0,
      "byteLength": 11784,
      "byteOffset": 211944,
      "target": 34962
    },
    {
      "buffer": 0,
      "byteLength": 11784,
      "byteOffset": 223728,
      "target": 34962
    },
    {
      "buffer": 0,
      "byteLength": 7856,
      "byteOffset": 235512,
      "target": 34962
    },
    {
      "buffer": 0,
      "byteLength": 2964,
      "byteOffset": 243368,
      "target": 34963
    },
    {
      "buffer": 0,
      "byteLength": 3972,
      "byteOffset": 246332,
      "target": 34962
    },
    {
      "buffer": 0,
      "byteLength": 3972,
      "byteOffset": 250304,
      "target": 34962
    },
    {
      "buffer": 0,
      "byteLength": 2648,
      "byteOffset": 254276,
      "target": 34962
    },
    {
      "buffer": 0,
      "byteLength": 1500,
      "byteOffset": 256924,
      "target": 34963
    },
    {
      "buffer": 0,
      "byteLength": 4608,
      "byteOffset": 258424,
      "target": 34962
    },
    {
      "buffer": 0,
      "byteLength": 4608,
      "byteOffset": 263032,
      "target": 34962
    },
    {
      "buffer": 0,
      "byteLength": 3072,
      "byteOffset": 267640,
      "target": 34962
    },
    {
      "buffer": 0,
      "byteLength": 1152,
      "byteOffset": 270712,
      "target": 34963
    },
    {
      "buffer": 0,
      "byteLength": 1440,
      "byteOffset": 271864,
      "target": 34962
    },
    {
      "buffer": 0,
      "byteLength": 1440,
      "byteOffset": 273304,
      "target": 34962
    },
    {
      "buffer": 0,
      "byteLength": 960,
      "byteOffset": 274744,
      "target": 34962
    },
    {
      "buffer": 0,
      "byteLength": 360,
      "byteOffset": 275704,
      "target": 34963
    },
    {
      "buffer": 0,
      "byteLength": 96,
      "byteOffset": 276064,
      "target": 34962
    },
    {
      "buffer": 0,
      "byteLength": 96,
      "byteOffset": 276160,
      "target": 34962
    },
    {
      "buffer": 0,
      "byteLength": 64,
      "byteOffset": 276256,
      "target": 34962
    },
    {
      "buffer": 0,
      "byteLength": 2592,
      "byteOffset": 276320,
      "target": 34962
    },
    {
      "buffer": 0,
      "byteLength": 2592,
      "byteOffset": 278912,
      "target": 34962
    },
    {
      "buffer": 0,
      "byteLength": 1728,
      "byteOffset": 281504,
      "target": 34962
    },
    {
      "buffer": 0,
      "byteLength": 2112,
      "byteOffset": 283232,
      "target": 34962
    },
    {
      "buffer": 0,
      "byteLength": 2112,
      "byteOffset": 285344,
      "target": 34962
    },
    {
      "buffer": 0,
      "byteLength": 1408,
      "byteOffset": 287456,
      "target": 34962
    },
    {
      "buffer": 0,
      "byteLength": 528,
      "byteOffset": 288864,
      "target": 34963
    },
    {
      "buffer": 0,
      "byteLength": 3156,
      "byteOffset": 289392,
      "target": 34962
    },
    {
      "buffer": 0,
      "byteLength": 3156,
      "byteOffset": 292548,
      "target": 34962
    },
    {
      "buffer": 0,
      "byteLength": 2104,
      "byteOffset": 295704,
      "target": 34962
    },
    {
      "buffer": 0,
      "byteLength": 156,
      "byteOffset": 297808,
      "target": 34962
    },
    {
      "buffer": 0,
      "byteLength": 156,
      "byteOffset": 297964,
      "target": 34962
    },
    {
      "buffer": 0,
      "byteLength": 104,
      "byteOffset": 298120,
      "target": 34962
    },
    {
      "buffer": 0,
      "byteLength": 288,
      "byteOffset": 298224,
      "target": 34962
    },
    {
      "buffer": 0,
      "byteLength": 288,
      "byteOffset": 298512,
      "target": 34962
    },
    {
      "buffer": 0,
      "byteLength": 192,
      "byteOffset": 298800,
      "target": 34962
    },
    {
      "buffer": 0,
      "byteLength": 132,
      "byteOffset": 298992,
      "target": 34963
    },
    {
      "buffer": 0,
      "byteLength": 33252,
      "byteOffset": 299124,
      "target": 34962
    },
    {
      "buffer": 0,
      "byteLength": 33252,
      "byteOffset": 332376,
      "target": 34962
    },
    {
      "buffer": 0,
      "byteLength": 22168,
      "byteOffset": 365628,
      "target": 34962
    },
    {
      "buffer": 0,
      "byteLength": 8988,
      "byteOffset": 387796,
      "target": 34963
    },
    {
      "buffer": 0,
      "byteLength": 18576,
      "byteOffset": 396784,
      "target": 34962
    },
    {
      "buffer": 0,
      "byteLength": 18576,
      "byteOffset": 415360,
      "target": 34962
    },
    {
      "buffer": 0,
      "byteLength": 12384,
      "byteOffset": 433936,
      "target": 34962
    },
    {
      "buffer": 0,
      "byteLength": 4800,
      "byteOffset": 446320,
      "target": 34963
    },
    {
      "buffer": 0,
      "byteLength": 4728,
      "byteOffset": 451120,
      "target": 34962
    },
    {
      "buffer": 0,
      "byteLength": 4728,
      "byteOffset": 455848,
      "target": 34962
    },
    {
      "buffer": 0,
      "byteLength": 3152,
      "byteOffset": 460576,
      "target": 34962
    },
    {
      "buffer": 0,
      "byteLength": 1248,
      "byteOffset": 463728,
      "target": 34963
    },
    {
      "buffer": 0,
      "byteLength": 3648,
      "byteOffset": 464976,
      "target": 34962
    },
    {
      "buffer": 0,
      "byteLength": 3648,
      "byteOffset": 468624,
      "target": 34962
    },
    {
      "buffer": 0,
      "byteLength": 2432,
      "byteOffset": 472272,
      "target": 34962
    },
    {
      "buffer": 0,
      "byteLength": 912,
      "byteOffset": 474704,
      "target": 34963
    },
    {
      "buffer": 0,
      "byteLength": 17280,
      "byteOffset": 475616,
      "target": 34962
    },
    {
      "buffer": 0,
      "byteLength": 17280,
      "byteOffset": 492896,
      "target": 34962
    },
    {
      "buffer": 0,
      "byteLength": 4320,
      "byteOffset": 510176,
      "target": 34963
    }
  ],
  "samplers": [
    {
      "magFilter": 9729,
      "minFilter": 9987
    }
  ],
  "buffers": [
    {
      "byteLength": 514496,
      "uri": "model.bin"
    }
  ]
}